<svg xmlns="http://www.w3.org/2000/svg" xmlns:xlink="http://www.w3.org/1999/xlink" width="500" zoomAndPan="magnify" viewBox="0 0 375 374.999991" height="500" preserveAspectRatio="xMidYMid meet" version="1.2"><defs><clipPath id="b025a04e71"><path d="M 22.550781 22.550781 L 352.445312 22.550781 L 352.445312 37.695312 L 22.550781 37.695312 Z M 337.300781 37.695312 L 352.445312 37.695312 L 352.445312 337.300781 L 337.300781 337.300781 Z M 22.550781 37.695312 L 37.695312 37.695312 L 37.695312 337.300781 L 22.550781 337.300781 Z M 22.550781 337.300781 L 352.445312 337.300781 L 352.445312 352.445312 L 22.550781 352.445312 Z M 22.550781 337.300781 "/></clipPath><linearGradient x1="17.709472" gradientTransform="matrix(1.514459,0,0,1.514459,22.550915,22.550909)" y1="-13.223859" x2="200.116558" gradientUnits="userSpaceOnUse" y2="231.056818" id="475b274f3c"><stop style="stop-color:#d73186;stop-opacity:1;" offset="0"/><stop style="stop-color:#d73186;stop-opacity:1;" offset="0.0625"/><stop style="stop-color:#d73186;stop-opacity:1;" offset="0.09375"/><stop style="stop-color:#d73186;stop-opacity:1;" offset="0.109375"/><stop style="stop-color:#d73186;stop-opacity:1;" offset="0.117188"/><stop style="stop-color:#d53286;stop-opacity:1;" offset="0.121094"/><stop style="stop-color:#d43386;stop-opacity:1;" offset="0.125"/><stop style="stop-color:#d23386;stop-opacity:1;" offset="0.128906"/><stop style="stop-color:#d13486;stop-opacity:1;" offset="0.132812"/><stop style="stop-color:#cf3586;stop-opacity:1;" offset="0.136719"/><stop style="stop-color:#ce3586;stop-opacity:1;" offset="0.140625"/><stop style="stop-color:#cd3686;stop-opacity:1;" offset="0.144531"/><stop style="stop-color:#cb3786;stop-opacity:1;" offset="0.148437"/><stop style="stop-color:#ca3786;stop-opacity:1;" offset="0.152344"/><stop style="stop-color:#c93886;stop-opacity:1;" offset="0.15625"/><stop style="stop-color:#c73986;stop-opacity:1;" offset="0.160156"/><stop style="stop-color:#c63986;stop-opacity:1;" offset="0.164062"/><stop style="stop-color:#c53a86;stop-opacity:1;" offset="0.167969"/><stop style="stop-color:#c33b86;stop-opacity:1;" offset="0.171875"/><stop style="stop-color:#c23b86;stop-opacity:1;" offset="0.175781"/><stop style="stop-color:#c13c86;stop-opacity:1;" offset="0.179687"/><stop style="stop-color:#bf3d86;stop-opacity:1;" offset="0.183594"/><stop style="stop-color:#be3d87;stop-opacity:1;" offset="0.1875"/><stop style="stop-color:#bd3e87;stop-opacity:1;" offset="0.191406"/><stop style="stop-color:#bb3f87;stop-opacity:1;" offset="0.195312"/><stop style="stop-color:#ba3f87;stop-opacity:1;" offset="0.199219"/><stop style="stop-color:#b94087;stop-opacity:1;" offset="0.203125"/><stop style="stop-color:#b74187;stop-opacity:1;" offset="0.207031"/><stop style="stop-color:#b64187;stop-opacity:1;" offset="0.210938"/><stop style="stop-color:#b54287;stop-opacity:1;" offset="0.214844"/><stop style="stop-color:#b34387;stop-opacity:1;" offset="0.21875"/><stop style="stop-color:#b24387;stop-opacity:1;" offset="0.222656"/><stop style="stop-color:#b14487;stop-opacity:1;" offset="0.226563"/><stop style="stop-color:#af4587;stop-opacity:1;" offset="0.230469"/><stop style="stop-color:#ae4587;stop-opacity:1;" offset="0.234375"/><stop style="stop-color:#ad4687;stop-opacity:1;" offset="0.238281"/><stop style="stop-color:#ab4787;stop-opacity:1;" offset="0.242187"/><stop style="stop-color:#aa4787;stop-opacity:1;" offset="0.246094"/><stop style="stop-color:#a94887;stop-opacity:1;" offset="0.25"/><stop style="stop-color:#a74987;stop-opacity:1;" offset="0.253906"/><stop style="stop-color:#a64987;stop-opacity:1;" offset="0.257812"/><stop style="stop-color:#a54a87;stop-opacity:1;" offset="0.261719"/><stop style="stop-color:#a34b87;stop-opacity:1;" offset="0.265625"/><stop style="stop-color:#a24b87;stop-opacity:1;" offset="0.269531"/><stop style="stop-color:#a14c87;stop-opacity:1;" offset="0.273438"/><stop style="stop-color:#9f4d87;stop-opacity:1;" offset="0.277344"/><stop style="stop-color:#9e4d87;stop-opacity:1;" offset="0.28125"/><stop style="stop-color:#9c4e87;stop-opacity:1;" offset="0.285156"/><stop style="stop-color:#9b4f87;stop-opacity:1;" offset="0.289062"/><stop style="stop-color:#9a4f87;stop-opacity:1;" offset="0.292969"/><stop style="stop-color:#985088;stop-opacity:1;" offset="0.296875"/><stop style="stop-color:#975188;stop-opacity:1;" offset="0.300781"/><stop style="stop-color:#965188;stop-opacity:1;" offset="0.304687"/><stop style="stop-color:#945288;stop-opacity:1;" offset="0.308594"/><stop style="stop-color:#935388;stop-opacity:1;" offset="0.3125"/><stop style="stop-color:#925388;stop-opacity:1;" offset="0.316406"/><stop style="stop-color:#905488;stop-opacity:1;" offset="0.320312"/><stop style="stop-color:#8f5588;stop-opacity:1;" offset="0.324219"/><stop style="stop-color:#8e5588;stop-opacity:1;" offset="0.328125"/><stop style="stop-color:#8c5688;stop-opacity:1;" offset="0.332031"/><stop style="stop-color:#8b5788;stop-opacity:1;" offset="0.335937"/><stop style="stop-color:#8a5788;stop-opacity:1;" offset="0.339844"/><stop style="stop-color:#885888;stop-opacity:1;" offset="0.34375"/><stop style="stop-color:#875988;stop-opacity:1;" offset="0.347656"/><stop style="stop-color:#865988;stop-opacity:1;" offset="0.351562"/><stop style="stop-color:#845a88;stop-opacity:1;" offset="0.355469"/><stop style="stop-color:#835b88;stop-opacity:1;" offset="0.359375"/><stop style="stop-color:#825b88;stop-opacity:1;" offset="0.363281"/><stop style="stop-color:#805c88;stop-opacity:1;" offset="0.367188"/><stop style="stop-color:#7f5d88;stop-opacity:1;" offset="0.371094"/><stop style="stop-color:#7e5d88;stop-opacity:1;" offset="0.375"/><stop style="stop-color:#7c5e88;stop-opacity:1;" offset="0.378906"/><stop style="stop-color:#7b5f88;stop-opacity:1;" offset="0.382812"/><stop style="stop-color:#7a5f88;stop-opacity:1;" offset="0.386719"/><stop style="stop-color:#786088;stop-opacity:1;" offset="0.390625"/><stop style="stop-color:#776188;stop-opacity:1;" offset="0.394531"/><stop style="stop-color:#766188;stop-opacity:1;" offset="0.398437"/><stop style="stop-color:#746288;stop-opacity:1;" offset="0.402344"/><stop style="stop-color:#736389;stop-opacity:1;" offset="0.40625"/><stop style="stop-color:#726389;stop-opacity:1;" offset="0.410156"/><stop style="stop-color:#706489;stop-opacity:1;" offset="0.414063"/><stop style="stop-color:#6f6589;stop-opacity:1;" offset="0.417969"/><stop style="stop-color:#6e6589;stop-opacity:1;" offset="0.421875"/><stop style="stop-color:#6c6689;stop-opacity:1;" offset="0.425781"/><stop style="stop-color:#6b6789;stop-opacity:1;" offset="0.429688"/><stop style="stop-color:#6a6789;stop-opacity:1;" offset="0.433594"/><stop style="stop-color:#686889;stop-opacity:1;" offset="0.4375"/><stop style="stop-color:#676989;stop-opacity:1;" offset="0.441406"/><stop style="stop-color:#656989;stop-opacity:1;" offset="0.445313"/><stop style="stop-color:#656a89;stop-opacity:1;" offset="0.449219"/><stop style="stop-color:#656a89;stop-opacity:1;" offset="0.453125"/><stop style="stop-color:#656a89;stop-opacity:1;" offset="0.457031"/><stop style="stop-color:#666a89;stop-opacity:1;" offset="0.460938"/><stop style="stop-color:#676a89;stop-opacity:1;" offset="0.464844"/><stop style="stop-color:#676a89;stop-opacity:1;" offset="0.46875"/><stop style="stop-color:#68698a;stop-opacity:1;" offset="0.472656"/><stop style="stop-color:#69698a;stop-opacity:1;" offset="0.476562"/><stop style="stop-color:#69698a;stop-opacity:1;" offset="0.480469"/><stop style="stop-color:#6a698a;stop-opacity:1;" offset="0.484375"/><stop style="stop-color:#6b698a;stop-opacity:1;" offset="0.488281"/><stop style="stop-color:#6c698a;stop-opacity:1;" offset="0.492188"/><stop style="stop-color:#6c698a;stop-opacity:1;" offset="0.496094"/><stop style="stop-color:#6d698a;stop-opacity:1;" offset="0.5"/><stop style="stop-color:#6e688a;stop-opacity:1;" offset="0.503906"/><stop style="stop-color:#6e688b;stop-opacity:1;" offset="0.507812"/><stop style="stop-color:#6f688b;stop-opacity:1;" offset="0.511719"/><stop style="stop-color:#70688b;stop-opacity:1;" offset="0.515625"/><stop style="stop-color:#70688b;stop-opacity:1;" offset="0.519531"/><stop style="stop-color:#71688b;stop-opacity:1;" offset="0.523438"/><stop style="stop-color:#72688b;stop-opacity:1;" offset="0.527344"/><stop style="stop-color:#72688b;stop-opacity:1;" offset="0.53125"/><stop style="stop-color:#73688b;stop-opacity:1;" offset="0.535156"/><stop style="stop-color:#74678b;stop-opacity:1;" offset="0.539062"/><stop style="stop-color:#75678c;stop-opacity:1;" offset="0.542969"/><stop style="stop-color:#75678c;stop-opacity:1;" offset="0.546875"/><stop style="stop-color:#76678c;stop-opacity:1;" offset="0.550781"/><stop style="stop-color:#77678c;stop-opacity:1;" offset="0.554688"/><stop style="stop-color:#77678c;stop-opacity:1;" offset="0.558594"/><stop style="stop-color:#78678c;stop-opacity:1;" offset="0.5625"/><stop style="stop-color:#79678c;stop-opacity:1;" offset="0.566406"/><stop style="stop-color:#79678c;stop-opacity:1;" offset="0.570312"/><stop style="stop-color:#7a668c;stop-opacity:1;" offset="0.574219"/><stop style="stop-color:#7b668d;stop-opacity:1;" offset="0.578125"/><stop style="stop-color:#7c668d;stop-opacity:1;" offset="0.582031"/><stop style="stop-color:#7c668d;stop-opacity:1;" offset="0.585938"/><stop style="stop-color:#7d668d;stop-opacity:1;" offset="0.589844"/><stop style="stop-color:#7e668d;stop-opacity:1;" offset="0.59375"/><stop style="stop-color:#7e668d;stop-opacity:1;" offset="0.597656"/><stop style="stop-color:#7f668d;stop-opacity:1;" offset="0.601562"/><stop style="stop-color:#80668d;stop-opacity:1;" offset="0.605469"/><stop style="stop-color:#80658d;stop-opacity:1;" offset="0.609375"/><stop style="stop-color:#81658e;stop-opacity:1;" offset="0.613281"/><stop style="stop-color:#82658e;stop-opacity:1;" offset="0.617188"/><stop style="stop-color:#82658e;stop-opacity:1;" offset="0.621094"/><stop style="stop-color:#83658e;stop-opacity:1;" offset="0.625"/><stop style="stop-color:#84658e;stop-opacity:1;" offset="0.628906"/><stop style="stop-color:#85658e;stop-opacity:1;" offset="0.632812"/><stop style="stop-color:#85658e;stop-opacity:1;" offset="0.636719"/><stop style="stop-color:#86648e;stop-opacity:1;" offset="0.640625"/><stop style="stop-color:#87648e;stop-opacity:1;" offset="0.644531"/><stop style="stop-color:#87648e;stop-opacity:1;" offset="0.648438"/><stop style="stop-color:#88648f;stop-opacity:1;" offset="0.652344"/><stop style="stop-color:#89648f;stop-opacity:1;" offset="0.65625"/><stop style="stop-color:#89648f;stop-opacity:1;" offset="0.660156"/><stop style="stop-color:#8a648f;stop-opacity:1;" offset="0.664062"/><stop style="stop-color:#8b648f;stop-opacity:1;" offset="0.667969"/><stop style="stop-color:#8c648f;stop-opacity:1;" offset="0.671875"/><stop style="stop-color:#8c638f;stop-opacity:1;" offset="0.675781"/><stop style="stop-color:#8d638f;stop-opacity:1;" offset="0.679687"/><stop style="stop-color:#8e638f;stop-opacity:1;" offset="0.683594"/><stop style="stop-color:#8e6390;stop-opacity:1;" offset="0.6875"/><stop style="stop-color:#8f6390;stop-opacity:1;" offset="0.691406"/><stop style="stop-color:#906390;stop-opacity:1;" offset="0.695312"/><stop style="stop-color:#906390;stop-opacity:1;" offset="0.699219"/><stop style="stop-color:#916390;stop-opacity:1;" offset="0.703125"/><stop style="stop-color:#926390;stop-opacity:1;" offset="0.707031"/><stop style="stop-color:#936290;stop-opacity:1;" offset="0.710937"/><stop style="stop-color:#936290;stop-opacity:1;" offset="0.714844"/><stop style="stop-color:#946290;stop-opacity:1;" offset="0.71875"/><stop style="stop-color:#956291;stop-opacity:1;" offset="0.722656"/><stop style="stop-color:#956291;stop-opacity:1;" offset="0.726562"/><stop style="stop-color:#966291;stop-opacity:1;" offset="0.730469"/><stop style="stop-color:#976291;stop-opacity:1;" offset="0.734375"/><stop style="stop-color:#976291;stop-opacity:1;" offset="0.738281"/><stop style="stop-color:#986291;stop-opacity:1;" offset="0.742188"/><stop style="stop-color:#996191;stop-opacity:1;" offset="0.746094"/><stop style="stop-color:#996191;stop-opacity:1;" offset="0.75"/><stop style="stop-color:#9a6191;stop-opacity:1;" offset="0.753906"/><stop style="stop-color:#9b6192;stop-opacity:1;" offset="0.757812"/><stop style="stop-color:#9c6192;stop-opacity:1;" offset="0.761719"/><stop style="stop-color:#9c6192;stop-opacity:1;" offset="0.765625"/><stop style="stop-color:#9d6192;stop-opacity:1;" offset="0.769531"/><stop style="stop-color:#9e6192;stop-opacity:1;" offset="0.773438"/><stop style="stop-color:#9e6092;stop-opacity:1;" offset="0.777344"/><stop style="stop-color:#9f6092;stop-opacity:1;" offset="0.78125"/><stop style="stop-color:#a06092;stop-opacity:1;" offset="0.785156"/><stop style="stop-color:#a06092;stop-opacity:1;" offset="0.789062"/><stop style="stop-color:#a16093;stop-opacity:1;" offset="0.792969"/><stop style="stop-color:#a26093;stop-opacity:1;" offset="0.796875"/><stop style="stop-color:#a36093;stop-opacity:1;" offset="0.800781"/><stop style="stop-color:#a36093;stop-opacity:1;" offset="0.804688"/><stop style="stop-color:#a46093;stop-opacity:1;" offset="0.808594"/><stop style="stop-color:#a55f93;stop-opacity:1;" offset="0.8125"/><stop style="stop-color:#a55f93;stop-opacity:1;" offset="0.816406"/><stop style="stop-color:#a65f93;stop-opacity:1;" offset="0.820312"/><stop style="stop-color:#a75f93;stop-opacity:1;" offset="0.824219"/><stop style="stop-color:#a75f94;stop-opacity:1;" offset="0.828125"/><stop style="stop-color:#a85f94;stop-opacity:1;" offset="0.832031"/><stop style="stop-color:#a95f94;stop-opacity:1;" offset="0.835938"/><stop style="stop-color:#a95f94;stop-opacity:1;" offset="0.839844"/><stop style="stop-color:#aa5f94;stop-opacity:1;" offset="0.84375"/><stop style="stop-color:#ab5e94;stop-opacity:1;" offset="0.847656"/><stop style="stop-color:#ac5e94;stop-opacity:1;" offset="0.851562"/><stop style="stop-color:#ac5e94;stop-opacity:1;" offset="0.855469"/><stop style="stop-color:#ad5e94;stop-opacity:1;" offset="0.859375"/><stop style="stop-color:#ae5e95;stop-opacity:1;" offset="0.863281"/><stop style="stop-color:#ae5e95;stop-opacity:1;" offset="0.867188"/><stop style="stop-color:#af5e95;stop-opacity:1;" offset="0.871094"/><stop style="stop-color:#b05e95;stop-opacity:1;" offset="0.875"/><stop style="stop-color:#b05e95;stop-opacity:1;" offset="0.878906"/><stop style="stop-color:#b15d95;stop-opacity:1;" offset="0.882812"/><stop style="stop-color:#b25d95;stop-opacity:1;" offset="0.886719"/><stop style="stop-color:#b35d95;stop-opacity:1;" offset="0.890625"/><stop style="stop-color:#b35d95;stop-opacity:1;" offset="0.894531"/><stop style="stop-color:#b45d95;stop-opacity:1;" offset="0.898438"/><stop style="stop-color:#b55d96;stop-opacity:1;" offset="0.902344"/><stop style="stop-color:#b55d96;stop-opacity:1;" offset="0.90625"/><stop style="stop-color:#b65d96;stop-opacity:1;" offset="0.910156"/><stop style="stop-color:#b75d96;stop-opacity:1;" offset="0.914062"/><stop style="stop-color:#b75c96;stop-opacity:1;" offset="0.917969"/><stop style="stop-color:#b85c96;stop-opacity:1;" offset="0.921875"/><stop style="stop-color:#b95c96;stop-opacity:1;" offset="0.925781"/><stop style="stop-color:#ba5c96;stop-opacity:1;" offset="0.929688"/><stop style="stop-color:#ba5c96;stop-opacity:1;" offset="0.933594"/><stop style="stop-color:#bb5c97;stop-opacity:1;" offset="0.9375"/><stop style="stop-color:#bc5c97;stop-opacity:1;" offset="0.941406"/><stop style="stop-color:#bc5c97;stop-opacity:1;" offset="0.945312"/><stop style="stop-color:#bd5b97;stop-opacity:1;" offset="0.949219"/><stop style="stop-color:#be5b97;stop-opacity:1;" offset="0.953125"/><stop style="stop-color:#be5b97;stop-opacity:1;" offset="0.957031"/><stop style="stop-color:#bf5b97;stop-opacity:1;" offset="0.960938"/><stop style="stop-color:#c05b97;stop-opacity:1;" offset="0.964844"/><stop style="stop-color:#c05b97;stop-opacity:1;" offset="0.96875"/><stop style="stop-color:#c15b98;stop-opacity:1;" offset="0.972656"/><stop style="stop-color:#c25b98;stop-opacity:1;" offset="0.976562"/><stop style="stop-color:#c35b98;stop-opacity:1;" offset="0.980469"/><stop style="stop-color:#c35a98;stop-opacity:1;" offset="0.984375"/><stop style="stop-color:#c45a98;stop-opacity:1;" offset="0.988281"/><stop style="stop-color:#c55a98;stop-opacity:1;" offset="0.992188"/><stop style="stop-color:#c55a98;stop-opacity:1;" offset="0.996094"/><stop style="stop-color:#c65a98;stop-opacity:1;" offset="1"/></linearGradient></defs><g id="cf9184e4f9"><rect x="0" width="375" y="0" height="374.999991" style="fill:#ffffff;fill-opacity:1;stroke:none;"/><rect x="0" width="375" y="0" height="374.999991" style="fill:#ffffff;fill-opacity:1;stroke:none;"/><g clip-rule="nonzero" clip-path="url(#b025a04e71)"><path style=" stroke:none;fill-rule:nonzero;fill:url(#475b274f3c);" d="M 22.550781 22.550781 L 22.550781 352.445312 L 352.445312 352.445312 L 352.445312 22.550781 Z M 22.550781 22.550781 "/></g><g style="fill:#000000;fill-opacity:1;"><g transform="translate(65.703867, 129.644973)"><path style="stroke:none" d="M 32.140625 1.203125 C 28.023438 1.203125 24.203125 0.46875 20.671875 -1 C 17.148438 -2.46875 14.078125 -4.523438 11.453125 -7.171875 C 8.835938 -9.816406 6.804688 -12.914062 5.359375 -16.46875 C 3.921875 -20.019531 3.203125 -23.851562 3.203125 -27.96875 C 3.203125 -32.132812 3.921875 -36.003906 5.359375 -39.578125 C 6.804688 -43.160156 8.835938 -46.273438 11.453125 -48.921875 C 14.078125 -51.566406 17.148438 -53.625 20.671875 -55.09375 C 24.203125 -56.5625 28.023438 -57.296875 32.140625 -57.296875 C 36.679688 -57.296875 40.847656 -56.359375 44.640625 -54.484375 C 48.429688 -52.617188 51.609375 -50.003906 54.171875 -46.640625 C 56.734375 -43.273438 58.441406 -39.375 59.296875 -34.9375 L 47.125 -34.9375 C 46 -38.25 44.097656 -40.878906 41.421875 -42.828125 C 38.753906 -44.785156 35.660156 -45.765625 32.140625 -45.765625 C 28.984375 -45.765625 26.148438 -44.972656 23.640625 -43.390625 C 21.128906 -41.816406 19.140625 -39.691406 17.671875 -37.015625 C 16.203125 -34.347656 15.46875 -31.332031 15.46875 -27.96875 C 15.46875 -24.601562 16.203125 -21.597656 17.671875 -18.953125 C 19.140625 -16.304688 21.128906 -14.207031 23.640625 -12.65625 C 26.148438 -11.113281 28.984375 -10.34375 32.140625 -10.34375 C 35.828125 -10.34375 39.003906 -11.382812 41.671875 -13.46875 C 44.347656 -15.550781 46.191406 -18.378906 47.203125 -21.953125 L 59.46875 -21.953125 C 58.613281 -17.304688 56.914062 -13.242188 54.375 -9.765625 C 51.832031 -6.296875 48.648438 -3.597656 44.828125 -1.671875 C 41.015625 0.242188 36.785156 1.203125 32.140625 1.203125 Z M 32.140625 1.203125 "/></g></g><g style="fill:#000000;fill-opacity:1;"><g transform="translate(130.862786, 129.644973)"><path style="stroke:none" d="M 33.015625 1.203125 C 28.742188 1.203125 24.789062 0.46875 21.15625 -1 C 17.519531 -2.46875 14.351562 -4.523438 11.65625 -7.171875 C 8.957031 -9.816406 6.859375 -12.914062 5.359375 -16.46875 C 3.867188 -20.019531 3.125 -23.878906 3.125 -28.046875 C 3.125 -32.210938 3.867188 -36.070312 5.359375 -39.625 C 6.859375 -43.175781 8.957031 -46.273438 11.65625 -48.921875 C 14.351562 -51.566406 17.519531 -53.625 21.15625 -55.09375 C 24.789062 -56.5625 28.742188 -57.296875 33.015625 -57.296875 C 37.285156 -57.296875 41.238281 -56.5625 44.875 -55.09375 C 48.507812 -53.625 51.660156 -51.566406 54.328125 -48.921875 C 57.003906 -46.273438 59.085938 -43.175781 60.578125 -39.625 C 62.078125 -36.070312 62.828125 -32.210938 62.828125 -28.046875 C 62.828125 -23.878906 62.078125 -20.019531 60.578125 -16.46875 C 59.085938 -12.914062 57.003906 -9.816406 54.328125 -7.171875 C 51.660156 -4.523438 48.507812 -2.46875 44.875 -1 C 41.238281 0.46875 37.285156 1.203125 33.015625 1.203125 Z M 33.015625 -10.265625 C 36.378906 -10.265625 39.382812 -11.035156 42.03125 -12.578125 C 44.675781 -14.128906 46.757812 -16.238281 48.28125 -18.90625 C 49.800781 -21.582031 50.5625 -24.628906 50.5625 -28.046875 C 50.5625 -31.410156 49.800781 -34.441406 48.28125 -37.140625 C 46.757812 -39.835938 44.675781 -41.960938 42.03125 -43.515625 C 39.382812 -45.066406 36.378906 -45.84375 33.015625 -45.84375 C 29.703125 -45.84375 26.707031 -45.066406 24.03125 -43.515625 C 21.363281 -41.960938 19.253906 -39.835938 17.703125 -37.140625 C 16.160156 -34.441406 15.390625 -31.410156 15.390625 -28.046875 C 15.390625 -24.679688 16.160156 -21.648438 17.703125 -18.953125 C 19.253906 -16.253906 21.363281 -14.128906 24.03125 -12.578125 C 26.707031 -11.035156 29.703125 -10.265625 33.015625 -10.265625 Z M 33.015625 -10.265625 "/></g></g><g style="fill:#000000;fill-opacity:1;"><g transform="translate(200.189287, 129.644973)"><path style="stroke:none" d="M 27.65625 -56.09375 C 31.757812 -56.09375 35.546875 -55.398438 39.015625 -54.015625 C 42.492188 -52.628906 45.5 -50.675781 48.03125 -48.15625 C 50.570312 -45.644531 52.550781 -42.691406 53.96875 -39.296875 C 55.382812 -35.910156 56.09375 -32.1875 56.09375 -28.125 C 56.09375 -24.0625 55.382812 -20.320312 53.96875 -16.90625 C 52.550781 -13.488281 50.570312 -10.507812 48.03125 -7.96875 C 45.5 -5.4375 42.492188 -3.472656 39.015625 -2.078125 C 35.546875 -0.691406 31.757812 0 27.65625 0 L 6.40625 0 L 6.40625 -56.09375 Z M 27.328125 -11.296875 C 30.535156 -11.296875 33.367188 -12.015625 35.828125 -13.453125 C 38.285156 -14.898438 40.207031 -16.890625 41.59375 -19.421875 C 42.976562 -21.960938 43.671875 -24.863281 43.671875 -28.125 C 43.671875 -31.382812 42.976562 -34.269531 41.59375 -36.78125 C 40.207031 -39.289062 38.285156 -41.253906 35.828125 -42.671875 C 33.367188 -44.085938 30.535156 -44.796875 27.328125 -44.796875 L 18.59375 -44.796875 L 18.59375 -11.296875 Z M 27.328125 -11.296875 "/></g></g><g style="fill:#000000;fill-opacity:1;"><g transform="translate(262.94381, 129.644973)"><path style="stroke:none" d="M 18.59375 -11.296875 L 40.953125 -11.296875 L 40.953125 0 L 6.40625 0 L 6.40625 -56.09375 L 40.0625 -56.09375 L 40.0625 -44.875 L 18.59375 -44.875 L 18.59375 -33.8125 L 37.984375 -33.8125 L 37.984375 -22.84375 L 18.59375 -22.84375 Z M 18.59375 -11.296875 "/></g></g><g style="fill:#000000;fill-opacity:1;"><g transform="translate(65.703867, 215.398996)"><path style="stroke:none" d="M 69.5625 -56.09375 L 82.21875 -56.09375 L 65 0 L 54.171875 0 L 41.59375 -31.421875 L 29.484375 0 L 18.671875 0 L 0.96875 -56.09375 L 13.859375 -56.09375 L 24.84375 -18.828125 L 39.59375 -55.53125 L 43.671875 -55.53125 L 58.828125 -18.828125 Z M 69.5625 -56.09375 "/></g></g><g style="fill:#000000;fill-opacity:1;"><g transform="translate(152.502245, 215.398996)"><path style="stroke:none" d="M 6.40625 0 L 6.40625 -56.09375 L 18.59375 -56.09375 L 18.59375 0 Z M 6.40625 0 "/></g></g><g style="fill:#000000;fill-opacity:1;"><g transform="translate(180.87407, 215.398996)"><path style="stroke:none" d="M 45.125 -56.09375 L 45.125 -44.796875 L 29.484375 -44.796875 L 29.484375 0 L 17.3125 0 L 17.3125 -44.796875 L 1.765625 -44.796875 L 1.765625 -56.09375 Z M 45.125 -56.09375 "/></g></g><g style="fill:#000000;fill-opacity:1;"><g transform="translate(231.045644, 215.398996)"><path style="stroke:none" d="M 39.671875 -56.09375 L 51.765625 -56.09375 L 51.765625 0 L 39.671875 0 L 39.671875 -23.15625 L 18.59375 -23.15625 L 18.59375 0 L 6.40625 0 L 6.40625 -56.09375 L 18.59375 -56.09375 L 18.59375 -34.453125 L 39.671875 -34.453125 Z M 39.671875 -56.09375 "/></g></g><g style="fill:#000000;fill-opacity:1;"><g transform="translate(65.703867, 301.153019)"><path style="stroke:none" d="M 53.21875 0 L 38.390625 0 L 18.59375 -27.40625 L 18.59375 0 L 6.40625 0 L 6.40625 -56.09375 L 18.59375 -56.09375 L 18.59375 -30.21875 L 36.9375 -56.09375 L 51.125 -56.09375 L 31.96875 -29.25 Z M 53.21875 0 "/></g></g><g style="fill:#000000;fill-opacity:1;"><g transform="translate(121.645961, 301.153019)"><path style="stroke:none" d="M 43.671875 0 L 39.75 -10.65625 L 17.390625 -10.65625 L 13.546875 0 L 0.71875 0 L 22.6875 -56.09375 L 34.140625 -56.09375 L 56.8125 0 Z M 28.53125 -41.265625 L 21.234375 -21.234375 L 35.90625 -21.234375 Z M 28.53125 -41.265625 "/></g></g><g style="fill:#000000;fill-opacity:1;"><g transform="translate(182.557118, 301.153019)"><path style="stroke:none" d="M 27.96875 -56.09375 C 31.757812 -56.09375 35.132812 -55.25 38.09375 -53.5625 C 41.0625 -51.882812 43.425781 -49.585938 45.1875 -46.671875 C 46.957031 -43.765625 47.84375 -40.46875 47.84375 -36.78125 C 47.84375 -33.09375 46.972656 -29.789062 45.234375 -26.875 C 43.503906 -23.96875 41.140625 -21.6875 38.140625 -20.03125 C 35.148438 -18.375 31.757812 -17.546875 27.96875 -17.546875 L 18.59375 -17.546875 L 18.59375 0 L 6.40625 0 L 6.40625 -56.09375 Z M 27.484375 -28.765625 C 29.890625 -28.765625 31.828125 -29.523438 33.296875 -31.046875 C 34.765625 -32.578125 35.5 -34.488281 35.5 -36.78125 C 35.5 -39.132812 34.765625 -41.070312 33.296875 -42.59375 C 31.828125 -44.113281 29.890625 -44.875 27.484375 -44.875 L 18.59375 -44.875 L 18.59375 -28.765625 Z M 27.484375 -28.765625 "/></g></g><g style="fill:#000000;fill-opacity:1;"><g transform="translate(235.774256, 301.153019)"><path style="stroke:none" d="M 25 1.125 C 20.726562 1.125 16.960938 0.347656 13.703125 -1.203125 C 10.441406 -2.753906 7.890625 -4.972656 6.046875 -7.859375 C 4.203125 -10.742188 3.28125 -14.1875 3.28125 -18.1875 L 15.546875 -18.1875 C 15.546875 -15.46875 16.492188 -13.453125 18.390625 -12.140625 C 20.285156 -10.828125 22.460938 -10.171875 24.921875 -10.171875 C 26.472656 -10.171875 27.925781 -10.425781 29.28125 -10.9375 C 30.644531 -11.445312 31.769531 -12.195312 32.65625 -13.1875 C 33.539062 -14.175781 33.984375 -15.363281 33.984375 -16.75 C 33.984375 -18.1875 33.472656 -19.316406 32.453125 -20.140625 C 31.441406 -20.972656 30.082031 -21.65625 28.375 -22.1875 C 26.664062 -22.726562 24.796875 -23.238281 22.765625 -23.71875 C 20.679688 -24.195312 18.539062 -24.785156 16.34375 -25.484375 C 14.15625 -26.179688 12.125 -27.101562 10.25 -28.25 C 8.382812 -29.394531 6.890625 -30.941406 5.765625 -32.890625 C 4.648438 -34.847656 4.09375 -37.320312 4.09375 -40.3125 C 4.09375 -45.707031 5.921875 -49.859375 9.578125 -52.765625 C 13.234375 -55.679688 18.1875 -57.140625 24.4375 -57.140625 C 30.851562 -57.140625 35.820312 -55.519531 39.34375 -52.28125 C 42.875 -49.050781 44.640625 -44.660156 44.640625 -39.109375 L 32.625 -39.109375 C 32.625 -41.515625 31.765625 -43.289062 30.046875 -44.4375 C 28.335938 -45.582031 26.363281 -46.15625 24.125 -46.15625 C 22.144531 -46.15625 20.328125 -45.726562 18.671875 -44.875 C 17.015625 -44.019531 16.1875 -42.6875 16.1875 -40.875 C 16.1875 -39.539062 16.679688 -38.484375 17.671875 -37.703125 C 18.660156 -36.929688 19.96875 -36.289062 21.59375 -35.78125 C 23.226562 -35.269531 25.03125 -34.773438 27 -34.296875 C 29.144531 -33.765625 31.335938 -33.132812 33.578125 -32.40625 C 35.816406 -31.6875 37.898438 -30.710938 39.828125 -29.484375 C 41.753906 -28.265625 43.316406 -26.640625 44.515625 -24.609375 C 45.722656 -22.578125 46.328125 -20.007812 46.328125 -16.90625 C 46.328125 -12.84375 45.347656 -9.476562 43.390625 -6.8125 C 41.441406 -4.144531 38.863281 -2.15625 35.65625 -0.84375 C 32.457031 0.46875 28.90625 1.125 25 1.125 Z M 25 1.125 "/></g></g></g></svg>