<svg xmlns="http://www.w3.org/2000/svg" xmlns:xlink="http://www.w3.org/1999/xlink" width="48" zoomAndPan="magnify" viewBox="0 0 36 36.000001" height="48" preserveAspectRatio="xMidYMid meet" version="1.2"><defs><clipPath id="34689c26b5"><path d="M 2.847656 2.359375 L 33.152344 2.359375 L 33.152344 3.75 L 2.847656 3.75 Z M 31.761719 3.75 L 33.152344 3.75 L 33.152344 31.277344 L 31.761719 31.277344 Z M 2.847656 3.75 L 4.238281 3.75 L 4.238281 31.277344 L 2.847656 31.277344 Z M 2.847656 31.277344 L 33.152344 31.277344 L 33.152344 32.667969 L 2.847656 32.667969 Z M 2.847656 31.277344 "/></clipPath><linearGradient x1="17.709467" gradientTransform="matrix(0.13913,0,0,0.13913,2.846615,2.360133)" y1="-13.223866" x2="200.116549" gradientUnits="userSpaceOnUse" y2="231.056806" id="42a45f4110"><stop style="stop-color:#d73186;stop-opacity:1;" offset="0"/><stop style="stop-color:#d73186;stop-opacity:1;" offset="0.0625"/><stop style="stop-color:#d73186;stop-opacity:1;" offset="0.09375"/><stop style="stop-color:#d73186;stop-opacity:1;" offset="0.109375"/><stop style="stop-color:#d73186;stop-opacity:1;" offset="0.117188"/><stop style="stop-color:#d53286;stop-opacity:1;" offset="0.121094"/><stop style="stop-color:#d43386;stop-opacity:1;" offset="0.125"/><stop style="stop-color:#d23386;stop-opacity:1;" offset="0.128906"/><stop style="stop-color:#d13486;stop-opacity:1;" offset="0.132812"/><stop style="stop-color:#cf3586;stop-opacity:1;" offset="0.136719"/><stop style="stop-color:#ce3586;stop-opacity:1;" offset="0.140625"/><stop style="stop-color:#cd3686;stop-opacity:1;" offset="0.144531"/><stop style="stop-color:#cb3786;stop-opacity:1;" offset="0.148438"/><stop style="stop-color:#ca3786;stop-opacity:1;" offset="0.152344"/><stop style="stop-color:#c93886;stop-opacity:1;" offset="0.15625"/><stop style="stop-color:#c73986;stop-opacity:1;" offset="0.160156"/><stop style="stop-color:#c63986;stop-opacity:1;" offset="0.164062"/><stop style="stop-color:#c53a86;stop-opacity:1;" offset="0.167969"/><stop style="stop-color:#c33b86;stop-opacity:1;" offset="0.171875"/><stop style="stop-color:#c23b86;stop-opacity:1;" offset="0.175781"/><stop style="stop-color:#c13c86;stop-opacity:1;" offset="0.179688"/><stop style="stop-color:#bf3d86;stop-opacity:1;" offset="0.183594"/><stop style="stop-color:#be3d87;stop-opacity:1;" offset="0.1875"/><stop style="stop-color:#bd3e87;stop-opacity:1;" offset="0.191406"/><stop style="stop-color:#bb3f87;stop-opacity:1;" offset="0.195312"/><stop style="stop-color:#ba3f87;stop-opacity:1;" offset="0.199219"/><stop style="stop-color:#b94087;stop-opacity:1;" offset="0.203125"/><stop style="stop-color:#b74187;stop-opacity:1;" offset="0.207031"/><stop style="stop-color:#b64187;stop-opacity:1;" offset="0.210937"/><stop style="stop-color:#b54287;stop-opacity:1;" offset="0.214844"/><stop style="stop-color:#b34387;stop-opacity:1;" offset="0.21875"/><stop style="stop-color:#b24387;stop-opacity:1;" offset="0.222656"/><stop style="stop-color:#b14487;stop-opacity:1;" offset="0.226562"/><stop style="stop-color:#af4587;stop-opacity:1;" offset="0.230469"/><stop style="stop-color:#ae4587;stop-opacity:1;" offset="0.234375"/><stop style="stop-color:#ad4687;stop-opacity:1;" offset="0.238281"/><stop style="stop-color:#ab4787;stop-opacity:1;" offset="0.242187"/><stop style="stop-color:#aa4787;stop-opacity:1;" offset="0.246094"/><stop style="stop-color:#a94887;stop-opacity:1;" offset="0.25"/><stop style="stop-color:#a74987;stop-opacity:1;" offset="0.253906"/><stop style="stop-color:#a64987;stop-opacity:1;" offset="0.257812"/><stop style="stop-color:#a54a87;stop-opacity:1;" offset="0.261719"/><stop style="stop-color:#a34b87;stop-opacity:1;" offset="0.265625"/><stop style="stop-color:#a24b87;stop-opacity:1;" offset="0.269531"/><stop style="stop-color:#a14c87;stop-opacity:1;" offset="0.273438"/><stop style="stop-color:#9f4d87;stop-opacity:1;" offset="0.277344"/><stop style="stop-color:#9e4d87;stop-opacity:1;" offset="0.28125"/><stop style="stop-color:#9c4e87;stop-opacity:1;" offset="0.285156"/><stop style="stop-color:#9b4f87;stop-opacity:1;" offset="0.289062"/><stop style="stop-color:#9a4f87;stop-opacity:1;" offset="0.292969"/><stop style="stop-color:#985088;stop-opacity:1;" offset="0.296875"/><stop style="stop-color:#975188;stop-opacity:1;" offset="0.300781"/><stop style="stop-color:#965188;stop-opacity:1;" offset="0.304688"/><stop style="stop-color:#945288;stop-opacity:1;" offset="0.308594"/><stop style="stop-color:#935388;stop-opacity:1;" offset="0.3125"/><stop style="stop-color:#925388;stop-opacity:1;" offset="0.316406"/><stop style="stop-color:#905488;stop-opacity:1;" offset="0.320313"/><stop style="stop-color:#8f5588;stop-opacity:1;" offset="0.324219"/><stop style="stop-color:#8e5588;stop-opacity:1;" offset="0.328125"/><stop style="stop-color:#8c5688;stop-opacity:1;" offset="0.332031"/><stop style="stop-color:#8b5788;stop-opacity:1;" offset="0.335938"/><stop style="stop-color:#8a5788;stop-opacity:1;" offset="0.339844"/><stop style="stop-color:#885888;stop-opacity:1;" offset="0.34375"/><stop style="stop-color:#875988;stop-opacity:1;" offset="0.347656"/><stop style="stop-color:#865988;stop-opacity:1;" offset="0.351562"/><stop style="stop-color:#845a88;stop-opacity:1;" offset="0.355469"/><stop style="stop-color:#835b88;stop-opacity:1;" offset="0.359375"/><stop style="stop-color:#825b88;stop-opacity:1;" offset="0.363281"/><stop style="stop-color:#805c88;stop-opacity:1;" offset="0.367188"/><stop style="stop-color:#7f5d88;stop-opacity:1;" offset="0.371094"/><stop style="stop-color:#7e5d88;stop-opacity:1;" offset="0.375"/><stop style="stop-color:#7c5e88;stop-opacity:1;" offset="0.378906"/><stop style="stop-color:#7b5f88;stop-opacity:1;" offset="0.382812"/><stop style="stop-color:#7a5f88;stop-opacity:1;" offset="0.386719"/><stop style="stop-color:#786088;stop-opacity:1;" offset="0.390625"/><stop style="stop-color:#776188;stop-opacity:1;" offset="0.394531"/><stop style="stop-color:#766188;stop-opacity:1;" offset="0.398437"/><stop style="stop-color:#746288;stop-opacity:1;" offset="0.402344"/><stop style="stop-color:#736389;stop-opacity:1;" offset="0.40625"/><stop style="stop-color:#726389;stop-opacity:1;" offset="0.410156"/><stop style="stop-color:#706489;stop-opacity:1;" offset="0.414062"/><stop style="stop-color:#6f6589;stop-opacity:1;" offset="0.417969"/><stop style="stop-color:#6e6589;stop-opacity:1;" offset="0.421875"/><stop style="stop-color:#6c6689;stop-opacity:1;" offset="0.425781"/><stop style="stop-color:#6b6789;stop-opacity:1;" offset="0.429687"/><stop style="stop-color:#6a6789;stop-opacity:1;" offset="0.433594"/><stop style="stop-color:#686889;stop-opacity:1;" offset="0.4375"/><stop style="stop-color:#676989;stop-opacity:1;" offset="0.441406"/><stop style="stop-color:#656989;stop-opacity:1;" offset="0.445312"/><stop style="stop-color:#656a89;stop-opacity:1;" offset="0.449219"/><stop style="stop-color:#656a89;stop-opacity:1;" offset="0.453125"/><stop style="stop-color:#656a89;stop-opacity:1;" offset="0.457031"/><stop style="stop-color:#666a89;stop-opacity:1;" offset="0.460938"/><stop style="stop-color:#676a89;stop-opacity:1;" offset="0.464844"/><stop style="stop-color:#676a89;stop-opacity:1;" offset="0.46875"/><stop style="stop-color:#68698a;stop-opacity:1;" offset="0.472656"/><stop style="stop-color:#69698a;stop-opacity:1;" offset="0.476562"/><stop style="stop-color:#69698a;stop-opacity:1;" offset="0.480469"/><stop style="stop-color:#6a698a;stop-opacity:1;" offset="0.484375"/><stop style="stop-color:#6b698a;stop-opacity:1;" offset="0.488281"/><stop style="stop-color:#6c698a;stop-opacity:1;" offset="0.492188"/><stop style="stop-color:#6c698a;stop-opacity:1;" offset="0.496094"/><stop style="stop-color:#6d698a;stop-opacity:1;" offset="0.5"/><stop style="stop-color:#6e688a;stop-opacity:1;" offset="0.503906"/><stop style="stop-color:#6e688b;stop-opacity:1;" offset="0.507812"/><stop style="stop-color:#6f688b;stop-opacity:1;" offset="0.511719"/><stop style="stop-color:#70688b;stop-opacity:1;" offset="0.515625"/><stop style="stop-color:#70688b;stop-opacity:1;" offset="0.519531"/><stop style="stop-color:#71688b;stop-opacity:1;" offset="0.523438"/><stop style="stop-color:#72688b;stop-opacity:1;" offset="0.527344"/><stop style="stop-color:#72688b;stop-opacity:1;" offset="0.53125"/><stop style="stop-color:#73688b;stop-opacity:1;" offset="0.535156"/><stop style="stop-color:#74678b;stop-opacity:1;" offset="0.539062"/><stop style="stop-color:#75678c;stop-opacity:1;" offset="0.542969"/><stop style="stop-color:#75678c;stop-opacity:1;" offset="0.546875"/><stop style="stop-color:#76678c;stop-opacity:1;" offset="0.550781"/><stop style="stop-color:#77678c;stop-opacity:1;" offset="0.554688"/><stop style="stop-color:#77678c;stop-opacity:1;" offset="0.558594"/><stop style="stop-color:#78678c;stop-opacity:1;" offset="0.5625"/><stop style="stop-color:#79678c;stop-opacity:1;" offset="0.566406"/><stop style="stop-color:#79678c;stop-opacity:1;" offset="0.570312"/><stop style="stop-color:#7a668c;stop-opacity:1;" offset="0.574219"/><stop style="stop-color:#7b668d;stop-opacity:1;" offset="0.578125"/><stop style="stop-color:#7c668d;stop-opacity:1;" offset="0.582031"/><stop style="stop-color:#7c668d;stop-opacity:1;" offset="0.585938"/><stop style="stop-color:#7d668d;stop-opacity:1;" offset="0.589844"/><stop style="stop-color:#7e668d;stop-opacity:1;" offset="0.59375"/><stop style="stop-color:#7e668d;stop-opacity:1;" offset="0.597656"/><stop style="stop-color:#7f668d;stop-opacity:1;" offset="0.601562"/><stop style="stop-color:#80668d;stop-opacity:1;" offset="0.605469"/><stop style="stop-color:#80658d;stop-opacity:1;" offset="0.609375"/><stop style="stop-color:#81658e;stop-opacity:1;" offset="0.613281"/><stop style="stop-color:#82658e;stop-opacity:1;" offset="0.617188"/><stop style="stop-color:#82658e;stop-opacity:1;" offset="0.621094"/><stop style="stop-color:#83658e;stop-opacity:1;" offset="0.625"/><stop style="stop-color:#84658e;stop-opacity:1;" offset="0.628906"/><stop style="stop-color:#85658e;stop-opacity:1;" offset="0.632812"/><stop style="stop-color:#85658e;stop-opacity:1;" offset="0.636719"/><stop style="stop-color:#86648e;stop-opacity:1;" offset="0.640625"/><stop style="stop-color:#87648e;stop-opacity:1;" offset="0.644531"/><stop style="stop-color:#87648e;stop-opacity:1;" offset="0.648437"/><stop style="stop-color:#88648f;stop-opacity:1;" offset="0.652344"/><stop style="stop-color:#89648f;stop-opacity:1;" offset="0.65625"/><stop style="stop-color:#89648f;stop-opacity:1;" offset="0.660156"/><stop style="stop-color:#8a648f;stop-opacity:1;" offset="0.664062"/><stop style="stop-color:#8b648f;stop-opacity:1;" offset="0.667969"/><stop style="stop-color:#8c648f;stop-opacity:1;" offset="0.671875"/><stop style="stop-color:#8c638f;stop-opacity:1;" offset="0.675781"/><stop style="stop-color:#8d638f;stop-opacity:1;" offset="0.679688"/><stop style="stop-color:#8e638f;stop-opacity:1;" offset="0.683594"/><stop style="stop-color:#8e6390;stop-opacity:1;" offset="0.6875"/><stop style="stop-color:#8f6390;stop-opacity:1;" offset="0.691406"/><stop style="stop-color:#906390;stop-opacity:1;" offset="0.695312"/><stop style="stop-color:#906390;stop-opacity:1;" offset="0.699219"/><stop style="stop-color:#916390;stop-opacity:1;" offset="0.703125"/><stop style="stop-color:#926390;stop-opacity:1;" offset="0.707031"/><stop style="stop-color:#936290;stop-opacity:1;" offset="0.710937"/><stop style="stop-color:#936290;stop-opacity:1;" offset="0.714844"/><stop style="stop-color:#946290;stop-opacity:1;" offset="0.71875"/><stop style="stop-color:#956291;stop-opacity:1;" offset="0.722656"/><stop style="stop-color:#956291;stop-opacity:1;" offset="0.726562"/><stop style="stop-color:#966291;stop-opacity:1;" offset="0.730469"/><stop style="stop-color:#976291;stop-opacity:1;" offset="0.734375"/><stop style="stop-color:#976291;stop-opacity:1;" offset="0.738281"/><stop style="stop-color:#986291;stop-opacity:1;" offset="0.742187"/><stop style="stop-color:#996191;stop-opacity:1;" offset="0.746094"/><stop style="stop-color:#996191;stop-opacity:1;" offset="0.75"/><stop style="stop-color:#9a6191;stop-opacity:1;" offset="0.753906"/><stop style="stop-color:#9b6192;stop-opacity:1;" offset="0.757812"/><stop style="stop-color:#9c6192;stop-opacity:1;" offset="0.761719"/><stop style="stop-color:#9c6192;stop-opacity:1;" offset="0.765625"/><stop style="stop-color:#9d6192;stop-opacity:1;" offset="0.769531"/><stop style="stop-color:#9e6192;stop-opacity:1;" offset="0.773437"/><stop style="stop-color:#9e6092;stop-opacity:1;" offset="0.777344"/><stop style="stop-color:#9f6092;stop-opacity:1;" offset="0.78125"/><stop style="stop-color:#a06092;stop-opacity:1;" offset="0.785156"/><stop style="stop-color:#a06092;stop-opacity:1;" offset="0.789062"/><stop style="stop-color:#a16093;stop-opacity:1;" offset="0.792969"/><stop style="stop-color:#a26093;stop-opacity:1;" offset="0.796875"/><stop style="stop-color:#a36093;stop-opacity:1;" offset="0.800781"/><stop style="stop-color:#a36093;stop-opacity:1;" offset="0.804688"/><stop style="stop-color:#a46093;stop-opacity:1;" offset="0.808594"/><stop style="stop-color:#a55f93;stop-opacity:1;" offset="0.8125"/><stop style="stop-color:#a55f93;stop-opacity:1;" offset="0.816406"/><stop style="stop-color:#a65f93;stop-opacity:1;" offset="0.820312"/><stop style="stop-color:#a75f93;stop-opacity:1;" offset="0.824219"/><stop style="stop-color:#a75f94;stop-opacity:1;" offset="0.828125"/><stop style="stop-color:#a85f94;stop-opacity:1;" offset="0.832031"/><stop style="stop-color:#a95f94;stop-opacity:1;" offset="0.835937"/><stop style="stop-color:#a95f94;stop-opacity:1;" offset="0.839844"/><stop style="stop-color:#aa5f94;stop-opacity:1;" offset="0.84375"/><stop style="stop-color:#ab5e94;stop-opacity:1;" offset="0.847656"/><stop style="stop-color:#ac5e94;stop-opacity:1;" offset="0.851562"/><stop style="stop-color:#ac5e94;stop-opacity:1;" offset="0.855469"/><stop style="stop-color:#ad5e94;stop-opacity:1;" offset="0.859375"/><stop style="stop-color:#ae5e95;stop-opacity:1;" offset="0.863281"/><stop style="stop-color:#ae5e95;stop-opacity:1;" offset="0.867187"/><stop style="stop-color:#af5e95;stop-opacity:1;" offset="0.871094"/><stop style="stop-color:#b05e95;stop-opacity:1;" offset="0.875"/><stop style="stop-color:#b05e95;stop-opacity:1;" offset="0.878906"/><stop style="stop-color:#b15d95;stop-opacity:1;" offset="0.882812"/><stop style="stop-color:#b25d95;stop-opacity:1;" offset="0.886719"/><stop style="stop-color:#b35d95;stop-opacity:1;" offset="0.890625"/><stop style="stop-color:#b35d95;stop-opacity:1;" offset="0.894531"/><stop style="stop-color:#b45d95;stop-opacity:1;" offset="0.898438"/><stop style="stop-color:#b55d96;stop-opacity:1;" offset="0.902344"/><stop style="stop-color:#b55d96;stop-opacity:1;" offset="0.90625"/><stop style="stop-color:#b65d96;stop-opacity:1;" offset="0.910156"/><stop style="stop-color:#b75d96;stop-opacity:1;" offset="0.914062"/><stop style="stop-color:#b75c96;stop-opacity:1;" offset="0.917969"/><stop style="stop-color:#b85c96;stop-opacity:1;" offset="0.921875"/><stop style="stop-color:#b95c96;stop-opacity:1;" offset="0.925781"/><stop style="stop-color:#ba5c96;stop-opacity:1;" offset="0.929688"/><stop style="stop-color:#ba5c96;stop-opacity:1;" offset="0.933594"/><stop style="stop-color:#bb5c97;stop-opacity:1;" offset="0.9375"/><stop style="stop-color:#bc5c97;stop-opacity:1;" offset="0.941406"/><stop style="stop-color:#bc5c97;stop-opacity:1;" offset="0.945312"/><stop style="stop-color:#bd5b97;stop-opacity:1;" offset="0.949219"/><stop style="stop-color:#be5b97;stop-opacity:1;" offset="0.953125"/><stop style="stop-color:#be5b97;stop-opacity:1;" offset="0.957031"/><stop style="stop-color:#bf5b97;stop-opacity:1;" offset="0.960938"/><stop style="stop-color:#c05b97;stop-opacity:1;" offset="0.964844"/><stop style="stop-color:#c05b97;stop-opacity:1;" offset="0.96875"/><stop style="stop-color:#c15b98;stop-opacity:1;" offset="0.972656"/><stop style="stop-color:#c25b98;stop-opacity:1;" offset="0.976562"/><stop style="stop-color:#c35b98;stop-opacity:1;" offset="0.980469"/><stop style="stop-color:#c35a98;stop-opacity:1;" offset="0.984375"/><stop style="stop-color:#c45a98;stop-opacity:1;" offset="0.988281"/><stop style="stop-color:#c55a98;stop-opacity:1;" offset="0.992187"/><stop style="stop-color:#c55a98;stop-opacity:1;" offset="0.996094"/><stop style="stop-color:#c65a98;stop-opacity:1;" offset="1"/></linearGradient></defs><g id="25485fa798"><g clip-rule="nonzero" clip-path="url(#34689c26b5)"><path style=" stroke:none;fill-rule:nonzero;fill:url(#42a45f4110);" d="M 2.847656 2.359375 L 2.847656 32.667969 L 33.152344 32.667969 L 33.152344 2.359375 Z M 2.847656 2.359375 "/></g><g style="fill:#ffffff;fill-opacity:1;"><g transform="translate(6.81095, 12.198547)"><path style="stroke:none" d="M 2.953125 0.109375 C 2.578125 0.109375 2.222656 0.0390625 1.890625 -0.09375 C 1.566406 -0.226562 1.285156 -0.414062 1.046875 -0.65625 C 0.804688 -0.894531 0.617188 -1.175781 0.484375 -1.5 C 0.359375 -1.832031 0.296875 -2.1875 0.296875 -2.5625 C 0.296875 -2.945312 0.359375 -3.300781 0.484375 -3.625 C 0.617188 -3.957031 0.804688 -4.242188 1.046875 -4.484375 C 1.285156 -4.734375 1.566406 -4.925781 1.890625 -5.0625 C 2.222656 -5.195312 2.578125 -5.265625 2.953125 -5.265625 C 3.367188 -5.265625 3.75 -5.175781 4.09375 -5 C 4.445312 -4.832031 4.738281 -4.59375 4.96875 -4.28125 C 5.207031 -3.96875 5.367188 -3.609375 5.453125 -3.203125 L 4.328125 -3.203125 C 4.222656 -3.515625 4.046875 -3.757812 3.796875 -3.9375 C 3.554688 -4.113281 3.273438 -4.203125 2.953125 -4.203125 C 2.660156 -4.203125 2.398438 -4.128906 2.171875 -3.984375 C 1.941406 -3.835938 1.757812 -3.640625 1.625 -3.390625 C 1.488281 -3.148438 1.421875 -2.875 1.421875 -2.5625 C 1.421875 -2.257812 1.488281 -1.984375 1.625 -1.734375 C 1.757812 -1.492188 1.941406 -1.300781 2.171875 -1.15625 C 2.398438 -1.019531 2.660156 -0.953125 2.953125 -0.953125 C 3.285156 -0.953125 3.570312 -1.046875 3.8125 -1.234375 C 4.0625 -1.421875 4.234375 -1.679688 4.328125 -2.015625 L 5.453125 -2.015625 C 5.378906 -1.585938 5.222656 -1.210938 4.984375 -0.890625 C 4.753906 -0.578125 4.460938 -0.332031 4.109375 -0.15625 C 3.765625 0.0195312 3.378906 0.109375 2.953125 0.109375 Z M 2.953125 0.109375 "/></g></g><g style="fill:#ffffff;fill-opacity:1;"><g transform="translate(12.796907, 12.198547)"><path style="stroke:none" d="M 3.03125 0.109375 C 2.632812 0.109375 2.269531 0.0390625 1.9375 -0.09375 C 1.601562 -0.226562 1.3125 -0.414062 1.0625 -0.65625 C 0.820312 -0.894531 0.628906 -1.175781 0.484375 -1.5 C 0.347656 -1.832031 0.28125 -2.191406 0.28125 -2.578125 C 0.28125 -2.960938 0.347656 -3.316406 0.484375 -3.640625 C 0.628906 -3.960938 0.820312 -4.242188 1.0625 -4.484375 C 1.3125 -4.734375 1.601562 -4.925781 1.9375 -5.0625 C 2.269531 -5.195312 2.632812 -5.265625 3.03125 -5.265625 C 3.425781 -5.265625 3.789062 -5.195312 4.125 -5.0625 C 4.457031 -4.925781 4.742188 -4.734375 4.984375 -4.484375 C 5.234375 -4.242188 5.425781 -3.960938 5.5625 -3.640625 C 5.695312 -3.316406 5.765625 -2.960938 5.765625 -2.578125 C 5.765625 -2.191406 5.695312 -1.832031 5.5625 -1.5 C 5.425781 -1.175781 5.234375 -0.894531 4.984375 -0.65625 C 4.742188 -0.414062 4.457031 -0.226562 4.125 -0.09375 C 3.789062 0.0390625 3.425781 0.109375 3.03125 0.109375 Z M 3.03125 -0.9375 C 3.34375 -0.9375 3.617188 -1.007812 3.859375 -1.15625 C 4.097656 -1.300781 4.285156 -1.492188 4.421875 -1.734375 C 4.566406 -1.984375 4.640625 -2.265625 4.640625 -2.578125 C 4.640625 -2.890625 4.566406 -3.164062 4.421875 -3.40625 C 4.285156 -3.65625 4.097656 -3.847656 3.859375 -3.984375 C 3.617188 -4.128906 3.34375 -4.203125 3.03125 -4.203125 C 2.726562 -4.203125 2.453125 -4.128906 2.203125 -3.984375 C 1.960938 -3.847656 1.769531 -3.65625 1.625 -3.40625 C 1.476562 -3.164062 1.40625 -2.890625 1.40625 -2.578125 C 1.40625 -2.265625 1.476562 -1.984375 1.625 -1.734375 C 1.769531 -1.492188 1.960938 -1.300781 2.203125 -1.15625 C 2.453125 -1.007812 2.726562 -0.9375 3.03125 -0.9375 Z M 3.03125 -0.9375 "/></g></g><g style="fill:#ffffff;fill-opacity:1;"><g transform="translate(19.165728, 12.198547)"><path style="stroke:none" d="M 2.53125 -5.15625 C 2.914062 -5.15625 3.265625 -5.085938 3.578125 -4.953125 C 3.898438 -4.828125 4.175781 -4.648438 4.40625 -4.421875 C 4.644531 -4.191406 4.828125 -3.921875 4.953125 -3.609375 C 5.085938 -3.296875 5.15625 -2.953125 5.15625 -2.578125 C 5.15625 -2.210938 5.085938 -1.867188 4.953125 -1.546875 C 4.828125 -1.234375 4.644531 -0.957031 4.40625 -0.71875 C 4.175781 -0.488281 3.898438 -0.3125 3.578125 -0.1875 C 3.265625 -0.0625 2.914062 0 2.53125 0 L 0.59375 0 L 0.59375 -5.15625 Z M 2.515625 -1.03125 C 2.804688 -1.03125 3.0625 -1.097656 3.28125 -1.234375 C 3.507812 -1.367188 3.6875 -1.550781 3.8125 -1.78125 C 3.945312 -2.019531 4.015625 -2.285156 4.015625 -2.578125 C 4.015625 -2.878906 3.945312 -3.144531 3.8125 -3.375 C 3.6875 -3.601562 3.507812 -3.78125 3.28125 -3.90625 C 3.0625 -4.039062 2.804688 -4.109375 2.515625 -4.109375 L 1.703125 -4.109375 L 1.703125 -1.03125 Z M 2.515625 -1.03125 "/></g></g><g style="fill:#ffffff;fill-opacity:1;"><g transform="translate(24.9308, 12.198547)"><path style="stroke:none" d="M 1.703125 -1.03125 L 3.765625 -1.03125 L 3.765625 0 L 0.59375 0 L 0.59375 -5.15625 L 3.671875 -5.15625 L 3.671875 -4.125 L 1.703125 -4.125 L 1.703125 -3.109375 L 3.484375 -3.109375 L 3.484375 -2.09375 L 1.703125 -2.09375 Z M 1.703125 -1.03125 "/></g></g><g style="fill:#ffffff;fill-opacity:1;"><g transform="translate(6.81095, 20.076516)"><path style="stroke:none" d="M 6.390625 -5.15625 L 7.546875 -5.15625 L 5.96875 0 L 4.96875 0 L 3.8125 -2.890625 L 2.703125 0 L 1.71875 0 L 0.09375 -5.15625 L 1.265625 -5.15625 L 2.28125 -1.734375 L 3.640625 -5.09375 L 4.015625 -5.09375 L 5.40625 -1.734375 Z M 6.390625 -5.15625 "/></g></g><g style="fill:#ffffff;fill-opacity:1;"><g transform="translate(14.78486, 20.076516)"><path style="stroke:none" d="M 0.59375 0 L 0.59375 -5.15625 L 1.703125 -5.15625 L 1.703125 0 Z M 0.59375 0 "/></g></g><g style="fill:#ffffff;fill-opacity:1;"><g transform="translate(17.391296, 20.076516)"><path style="stroke:none" d="M 4.140625 -5.15625 L 4.140625 -4.109375 L 2.703125 -4.109375 L 2.703125 0 L 1.59375 0 L 1.59375 -4.109375 L 0.15625 -4.109375 L 0.15625 -5.15625 Z M 4.140625 -5.15625 "/></g></g><g style="fill:#ffffff;fill-opacity:1;"><g transform="translate(22.00041, 20.076516)"><path style="stroke:none" d="M 3.640625 -5.15625 L 4.75 -5.15625 L 4.75 0 L 3.640625 0 L 3.640625 -2.125 L 1.703125 -2.125 L 1.703125 0 L 0.59375 0 L 0.59375 -5.15625 L 1.703125 -5.15625 L 1.703125 -3.171875 L 3.640625 -3.171875 Z M 3.640625 -5.15625 "/></g></g><g style="fill:#ffffff;fill-opacity:1;"><g transform="translate(6.81095, 27.954484)"><path style="stroke:none" d="M 4.890625 0 L 3.53125 0 L 1.703125 -2.515625 L 1.703125 0 L 0.59375 0 L 0.59375 -5.15625 L 1.703125 -5.15625 L 1.703125 -2.78125 L 3.390625 -5.15625 L 4.6875 -5.15625 L 2.9375 -2.6875 Z M 4.890625 0 "/></g></g><g style="fill:#ffffff;fill-opacity:1;"><g transform="translate(11.950185, 27.954484)"><path style="stroke:none" d="M 4.015625 0 L 3.65625 -0.984375 L 1.59375 -0.984375 L 1.25 0 L 0.0625 0 L 2.078125 -5.15625 L 3.140625 -5.15625 L 5.21875 0 Z M 2.625 -3.796875 L 1.953125 -1.953125 L 3.296875 -1.953125 Z M 2.625 -3.796875 "/></g></g><g style="fill:#ffffff;fill-opacity:1;"><g transform="translate(17.545913, 27.954484)"><path style="stroke:none" d="M 2.5625 -5.15625 C 2.914062 -5.15625 3.226562 -5.078125 3.5 -4.921875 C 3.769531 -4.765625 3.984375 -4.550781 4.140625 -4.28125 C 4.304688 -4.019531 4.390625 -3.71875 4.390625 -3.375 C 4.390625 -3.039062 4.3125 -2.738281 4.15625 -2.46875 C 4 -2.195312 3.78125 -1.984375 3.5 -1.828125 C 3.226562 -1.679688 2.914062 -1.609375 2.5625 -1.609375 L 1.703125 -1.609375 L 1.703125 0 L 0.59375 0 L 0.59375 -5.15625 Z M 2.53125 -2.640625 C 2.75 -2.640625 2.925781 -2.707031 3.0625 -2.84375 C 3.195312 -2.988281 3.265625 -3.164062 3.265625 -3.375 C 3.265625 -3.59375 3.195312 -3.769531 3.0625 -3.90625 C 2.925781 -4.050781 2.75 -4.125 2.53125 -4.125 L 1.703125 -4.125 L 1.703125 -2.640625 Z M 2.53125 -2.640625 "/></g></g><g style="fill:#ffffff;fill-opacity:1;"><g transform="translate(22.434814, 27.954484)"><path style="stroke:none" d="M 2.296875 0.109375 C 1.898438 0.109375 1.550781 0.0351562 1.25 -0.109375 C 0.957031 -0.253906 0.722656 -0.457031 0.546875 -0.71875 C 0.378906 -0.988281 0.296875 -1.304688 0.296875 -1.671875 L 1.421875 -1.671875 C 1.421875 -1.421875 1.507812 -1.234375 1.6875 -1.109375 C 1.863281 -0.992188 2.0625 -0.9375 2.28125 -0.9375 C 2.425781 -0.9375 2.5625 -0.957031 2.6875 -1 C 2.8125 -1.050781 2.914062 -1.117188 3 -1.203125 C 3.082031 -1.296875 3.125 -1.40625 3.125 -1.53125 C 3.125 -1.664062 3.078125 -1.769531 2.984375 -1.84375 C 2.890625 -1.925781 2.765625 -1.988281 2.609375 -2.03125 C 2.453125 -2.082031 2.28125 -2.128906 2.09375 -2.171875 C 1.894531 -2.222656 1.695312 -2.28125 1.5 -2.34375 C 1.300781 -2.40625 1.113281 -2.488281 0.9375 -2.59375 C 0.769531 -2.695312 0.632812 -2.835938 0.53125 -3.015625 C 0.425781 -3.203125 0.375 -3.429688 0.375 -3.703125 C 0.375 -4.191406 0.539062 -4.570312 0.875 -4.84375 C 1.21875 -5.113281 1.675781 -5.25 2.25 -5.25 C 2.832031 -5.25 3.285156 -5.097656 3.609375 -4.796875 C 3.929688 -4.503906 4.09375 -4.101562 4.09375 -3.59375 L 3 -3.59375 C 3 -3.8125 2.921875 -3.972656 2.765625 -4.078125 C 2.609375 -4.179688 2.425781 -4.234375 2.21875 -4.234375 C 2.03125 -4.234375 1.859375 -4.191406 1.703125 -4.109375 C 1.554688 -4.035156 1.484375 -3.914062 1.484375 -3.75 C 1.484375 -3.625 1.53125 -3.523438 1.625 -3.453125 C 1.71875 -3.390625 1.835938 -3.332031 1.984375 -3.28125 C 2.128906 -3.238281 2.296875 -3.195312 2.484375 -3.15625 C 2.679688 -3.101562 2.878906 -3.039062 3.078125 -2.96875 C 3.285156 -2.90625 3.476562 -2.816406 3.65625 -2.703125 C 3.832031 -2.585938 3.972656 -2.4375 4.078125 -2.25 C 4.191406 -2.070312 4.25 -1.835938 4.25 -1.546875 C 4.25 -1.179688 4.160156 -0.875 3.984375 -0.625 C 3.804688 -0.375 3.566406 -0.1875 3.265625 -0.0625 C 2.972656 0.0507812 2.648438 0.109375 2.296875 0.109375 Z M 2.296875 0.109375 "/></g></g></g></svg>