<svg xmlns="http://www.w3.org/2000/svg" xmlns:xlink="http://www.w3.org/1999/xlink" width="40" zoomAndPan="magnify" viewBox="0 0 30 30.000001" height="40" preserveAspectRatio="xMidYMid meet" version="1.2"><defs><clipPath id="8eedd09354"><path d="M 2.441406 1.957031 L 27.558594 1.957031 L 27.558594 3.109375 L 2.441406 3.109375 Z M 26.40625 3.109375 L 27.558594 3.109375 L 27.558594 25.921875 L 26.40625 25.921875 Z M 2.441406 3.109375 L 3.59375 3.109375 L 3.59375 25.921875 L 2.441406 25.921875 Z M 2.441406 25.921875 L 27.558594 25.921875 L 27.558594 27.074219 L 2.441406 27.074219 Z M 2.441406 25.921875 "/></clipPath><linearGradient x1="17.709468" gradientTransform="matrix(0.115318,0,0,0.115318,2.440071,1.956203)" y1="-13.223864" x2="200.116553" gradientUnits="userSpaceOnUse" y2="231.056811" id="07bb579cda"><stop style="stop-color:#d73186;stop-opacity:1;" offset="0"/><stop style="stop-color:#d73186;stop-opacity:1;" offset="0.0625"/><stop style="stop-color:#d73186;stop-opacity:1;" offset="0.09375"/><stop style="stop-color:#d73186;stop-opacity:1;" offset="0.109375"/><stop style="stop-color:#d73186;stop-opacity:1;" offset="0.117187"/><stop style="stop-color:#d53286;stop-opacity:1;" offset="0.121094"/><stop style="stop-color:#d43386;stop-opacity:1;" offset="0.125"/><stop style="stop-color:#d23386;stop-opacity:1;" offset="0.128906"/><stop style="stop-color:#d13486;stop-opacity:1;" offset="0.132812"/><stop style="stop-color:#cf3586;stop-opacity:1;" offset="0.136719"/><stop style="stop-color:#ce3586;stop-opacity:1;" offset="0.140625"/><stop style="stop-color:#cd3686;stop-opacity:1;" offset="0.144531"/><stop style="stop-color:#cb3786;stop-opacity:1;" offset="0.148438"/><stop style="stop-color:#ca3786;stop-opacity:1;" offset="0.152344"/><stop style="stop-color:#c93886;stop-opacity:1;" offset="0.15625"/><stop style="stop-color:#c73986;stop-opacity:1;" offset="0.160156"/><stop style="stop-color:#c63986;stop-opacity:1;" offset="0.164062"/><stop style="stop-color:#c53a86;stop-opacity:1;" offset="0.167969"/><stop style="stop-color:#c33b86;stop-opacity:1;" offset="0.171875"/><stop style="stop-color:#c23b86;stop-opacity:1;" offset="0.175781"/><stop style="stop-color:#c13c86;stop-opacity:1;" offset="0.179687"/><stop style="stop-color:#bf3d86;stop-opacity:1;" offset="0.183594"/><stop style="stop-color:#be3d87;stop-opacity:1;" offset="0.1875"/><stop style="stop-color:#bd3e87;stop-opacity:1;" offset="0.191406"/><stop style="stop-color:#bb3f87;stop-opacity:1;" offset="0.195313"/><stop style="stop-color:#ba3f87;stop-opacity:1;" offset="0.199219"/><stop style="stop-color:#b94087;stop-opacity:1;" offset="0.203125"/><stop style="stop-color:#b74187;stop-opacity:1;" offset="0.207031"/><stop style="stop-color:#b64187;stop-opacity:1;" offset="0.210938"/><stop style="stop-color:#b54287;stop-opacity:1;" offset="0.214844"/><stop style="stop-color:#b34387;stop-opacity:1;" offset="0.21875"/><stop style="stop-color:#b24387;stop-opacity:1;" offset="0.222656"/><stop style="stop-color:#b14487;stop-opacity:1;" offset="0.226562"/><stop style="stop-color:#af4587;stop-opacity:1;" offset="0.230469"/><stop style="stop-color:#ae4587;stop-opacity:1;" offset="0.234375"/><stop style="stop-color:#ad4687;stop-opacity:1;" offset="0.238281"/><stop style="stop-color:#ab4787;stop-opacity:1;" offset="0.242188"/><stop style="stop-color:#aa4787;stop-opacity:1;" offset="0.246094"/><stop style="stop-color:#a94887;stop-opacity:1;" offset="0.25"/><stop style="stop-color:#a74987;stop-opacity:1;" offset="0.253906"/><stop style="stop-color:#a64987;stop-opacity:1;" offset="0.257812"/><stop style="stop-color:#a54a87;stop-opacity:1;" offset="0.261719"/><stop style="stop-color:#a34b87;stop-opacity:1;" offset="0.265625"/><stop style="stop-color:#a24b87;stop-opacity:1;" offset="0.269531"/><stop style="stop-color:#a14c87;stop-opacity:1;" offset="0.273438"/><stop style="stop-color:#9f4d87;stop-opacity:1;" offset="0.277344"/><stop style="stop-color:#9e4d87;stop-opacity:1;" offset="0.28125"/><stop style="stop-color:#9c4e87;stop-opacity:1;" offset="0.285156"/><stop style="stop-color:#9b4f87;stop-opacity:1;" offset="0.289062"/><stop style="stop-color:#9a4f87;stop-opacity:1;" offset="0.292969"/><stop style="stop-color:#985088;stop-opacity:1;" offset="0.296875"/><stop style="stop-color:#975188;stop-opacity:1;" offset="0.300781"/><stop style="stop-color:#965188;stop-opacity:1;" offset="0.304688"/><stop style="stop-color:#945288;stop-opacity:1;" offset="0.308594"/><stop style="stop-color:#935388;stop-opacity:1;" offset="0.3125"/><stop style="stop-color:#925388;stop-opacity:1;" offset="0.316406"/><stop style="stop-color:#905488;stop-opacity:1;" offset="0.320312"/><stop style="stop-color:#8f5588;stop-opacity:1;" offset="0.324219"/><stop style="stop-color:#8e5588;stop-opacity:1;" offset="0.328125"/><stop style="stop-color:#8c5688;stop-opacity:1;" offset="0.332031"/><stop style="stop-color:#8b5788;stop-opacity:1;" offset="0.335938"/><stop style="stop-color:#8a5788;stop-opacity:1;" offset="0.339844"/><stop style="stop-color:#885888;stop-opacity:1;" offset="0.34375"/><stop style="stop-color:#875988;stop-opacity:1;" offset="0.347656"/><stop style="stop-color:#865988;stop-opacity:1;" offset="0.351562"/><stop style="stop-color:#845a88;stop-opacity:1;" offset="0.355469"/><stop style="stop-color:#835b88;stop-opacity:1;" offset="0.359375"/><stop style="stop-color:#825b88;stop-opacity:1;" offset="0.363281"/><stop style="stop-color:#805c88;stop-opacity:1;" offset="0.367187"/><stop style="stop-color:#7f5d88;stop-opacity:1;" offset="0.371094"/><stop style="stop-color:#7e5d88;stop-opacity:1;" offset="0.375"/><stop style="stop-color:#7c5e88;stop-opacity:1;" offset="0.378906"/><stop style="stop-color:#7b5f88;stop-opacity:1;" offset="0.382812"/><stop style="stop-color:#7a5f88;stop-opacity:1;" offset="0.386719"/><stop style="stop-color:#786088;stop-opacity:1;" offset="0.390625"/><stop style="stop-color:#776188;stop-opacity:1;" offset="0.394531"/><stop style="stop-color:#766188;stop-opacity:1;" offset="0.398437"/><stop style="stop-color:#746288;stop-opacity:1;" offset="0.402344"/><stop style="stop-color:#736389;stop-opacity:1;" offset="0.40625"/><stop style="stop-color:#726389;stop-opacity:1;" offset="0.410156"/><stop style="stop-color:#706489;stop-opacity:1;" offset="0.414062"/><stop style="stop-color:#6f6589;stop-opacity:1;" offset="0.417969"/><stop style="stop-color:#6e6589;stop-opacity:1;" offset="0.421875"/><stop style="stop-color:#6c6689;stop-opacity:1;" offset="0.425781"/><stop style="stop-color:#6b6789;stop-opacity:1;" offset="0.429687"/><stop style="stop-color:#6a6789;stop-opacity:1;" offset="0.433594"/><stop style="stop-color:#686889;stop-opacity:1;" offset="0.4375"/><stop style="stop-color:#676989;stop-opacity:1;" offset="0.441406"/><stop style="stop-color:#656989;stop-opacity:1;" offset="0.445312"/><stop style="stop-color:#656a89;stop-opacity:1;" offset="0.449219"/><stop style="stop-color:#656a89;stop-opacity:1;" offset="0.453125"/><stop style="stop-color:#656a89;stop-opacity:1;" offset="0.457031"/><stop style="stop-color:#666a89;stop-opacity:1;" offset="0.460937"/><stop style="stop-color:#676a89;stop-opacity:1;" offset="0.464844"/><stop style="stop-color:#676a89;stop-opacity:1;" offset="0.46875"/><stop style="stop-color:#68698a;stop-opacity:1;" offset="0.472656"/><stop style="stop-color:#69698a;stop-opacity:1;" offset="0.476562"/><stop style="stop-color:#69698a;stop-opacity:1;" offset="0.480469"/><stop style="stop-color:#6a698a;stop-opacity:1;" offset="0.484375"/><stop style="stop-color:#6b698a;stop-opacity:1;" offset="0.488281"/><stop style="stop-color:#6c698a;stop-opacity:1;" offset="0.492187"/><stop style="stop-color:#6c698a;stop-opacity:1;" offset="0.496094"/><stop style="stop-color:#6d698a;stop-opacity:1;" offset="0.5"/><stop style="stop-color:#6e688a;stop-opacity:1;" offset="0.503906"/><stop style="stop-color:#6e688b;stop-opacity:1;" offset="0.507812"/><stop style="stop-color:#6f688b;stop-opacity:1;" offset="0.511719"/><stop style="stop-color:#70688b;stop-opacity:1;" offset="0.515625"/><stop style="stop-color:#70688b;stop-opacity:1;" offset="0.519531"/><stop style="stop-color:#71688b;stop-opacity:1;" offset="0.523437"/><stop style="stop-color:#72688b;stop-opacity:1;" offset="0.527344"/><stop style="stop-color:#72688b;stop-opacity:1;" offset="0.53125"/><stop style="stop-color:#73688b;stop-opacity:1;" offset="0.535156"/><stop style="stop-color:#74678b;stop-opacity:1;" offset="0.539062"/><stop style="stop-color:#75678c;stop-opacity:1;" offset="0.542969"/><stop style="stop-color:#75678c;stop-opacity:1;" offset="0.546875"/><stop style="stop-color:#76678c;stop-opacity:1;" offset="0.550781"/><stop style="stop-color:#77678c;stop-opacity:1;" offset="0.554687"/><stop style="stop-color:#77678c;stop-opacity:1;" offset="0.558594"/><stop style="stop-color:#78678c;stop-opacity:1;" offset="0.5625"/><stop style="stop-color:#79678c;stop-opacity:1;" offset="0.566406"/><stop style="stop-color:#79678c;stop-opacity:1;" offset="0.570312"/><stop style="stop-color:#7a668c;stop-opacity:1;" offset="0.574219"/><stop style="stop-color:#7b668d;stop-opacity:1;" offset="0.578125"/><stop style="stop-color:#7c668d;stop-opacity:1;" offset="0.582031"/><stop style="stop-color:#7c668d;stop-opacity:1;" offset="0.585938"/><stop style="stop-color:#7d668d;stop-opacity:1;" offset="0.589844"/><stop style="stop-color:#7e668d;stop-opacity:1;" offset="0.59375"/><stop style="stop-color:#7e668d;stop-opacity:1;" offset="0.597656"/><stop style="stop-color:#7f668d;stop-opacity:1;" offset="0.601562"/><stop style="stop-color:#80668d;stop-opacity:1;" offset="0.605469"/><stop style="stop-color:#80658d;stop-opacity:1;" offset="0.609375"/><stop style="stop-color:#81658e;stop-opacity:1;" offset="0.613281"/><stop style="stop-color:#82658e;stop-opacity:1;" offset="0.617188"/><stop style="stop-color:#82658e;stop-opacity:1;" offset="0.621094"/><stop style="stop-color:#83658e;stop-opacity:1;" offset="0.625"/><stop style="stop-color:#84658e;stop-opacity:1;" offset="0.628906"/><stop style="stop-color:#85658e;stop-opacity:1;" offset="0.632812"/><stop style="stop-color:#85658e;stop-opacity:1;" offset="0.636719"/><stop style="stop-color:#86648e;stop-opacity:1;" offset="0.640625"/><stop style="stop-color:#87648e;stop-opacity:1;" offset="0.644531"/><stop style="stop-color:#87648e;stop-opacity:1;" offset="0.648438"/><stop style="stop-color:#88648f;stop-opacity:1;" offset="0.652344"/><stop style="stop-color:#89648f;stop-opacity:1;" offset="0.65625"/><stop style="stop-color:#89648f;stop-opacity:1;" offset="0.660156"/><stop style="stop-color:#8a648f;stop-opacity:1;" offset="0.664062"/><stop style="stop-color:#8b648f;stop-opacity:1;" offset="0.667969"/><stop style="stop-color:#8c648f;stop-opacity:1;" offset="0.671875"/><stop style="stop-color:#8c638f;stop-opacity:1;" offset="0.675781"/><stop style="stop-color:#8d638f;stop-opacity:1;" offset="0.679688"/><stop style="stop-color:#8e638f;stop-opacity:1;" offset="0.683594"/><stop style="stop-color:#8e6390;stop-opacity:1;" offset="0.6875"/><stop style="stop-color:#8f6390;stop-opacity:1;" offset="0.691406"/><stop style="stop-color:#906390;stop-opacity:1;" offset="0.695312"/><stop style="stop-color:#906390;stop-opacity:1;" offset="0.699219"/><stop style="stop-color:#916390;stop-opacity:1;" offset="0.703125"/><stop style="stop-color:#926390;stop-opacity:1;" offset="0.707031"/><stop style="stop-color:#936290;stop-opacity:1;" offset="0.710938"/><stop style="stop-color:#936290;stop-opacity:1;" offset="0.714844"/><stop style="stop-color:#946290;stop-opacity:1;" offset="0.71875"/><stop style="stop-color:#956291;stop-opacity:1;" offset="0.722656"/><stop style="stop-color:#956291;stop-opacity:1;" offset="0.726562"/><stop style="stop-color:#966291;stop-opacity:1;" offset="0.730469"/><stop style="stop-color:#976291;stop-opacity:1;" offset="0.734375"/><stop style="stop-color:#976291;stop-opacity:1;" offset="0.738281"/><stop style="stop-color:#986291;stop-opacity:1;" offset="0.742187"/><stop style="stop-color:#996191;stop-opacity:1;" offset="0.746094"/><stop style="stop-color:#996191;stop-opacity:1;" offset="0.75"/><stop style="stop-color:#9a6191;stop-opacity:1;" offset="0.753906"/><stop style="stop-color:#9b6192;stop-opacity:1;" offset="0.757812"/><stop style="stop-color:#9c6192;stop-opacity:1;" offset="0.761719"/><stop style="stop-color:#9c6192;stop-opacity:1;" offset="0.765625"/><stop style="stop-color:#9d6192;stop-opacity:1;" offset="0.769531"/><stop style="stop-color:#9e6192;stop-opacity:1;" offset="0.773437"/><stop style="stop-color:#9e6092;stop-opacity:1;" offset="0.777344"/><stop style="stop-color:#9f6092;stop-opacity:1;" offset="0.78125"/><stop style="stop-color:#a06092;stop-opacity:1;" offset="0.785156"/><stop style="stop-color:#a06092;stop-opacity:1;" offset="0.789062"/><stop style="stop-color:#a16093;stop-opacity:1;" offset="0.792969"/><stop style="stop-color:#a26093;stop-opacity:1;" offset="0.796875"/><stop style="stop-color:#a36093;stop-opacity:1;" offset="0.800781"/><stop style="stop-color:#a36093;stop-opacity:1;" offset="0.804687"/><stop style="stop-color:#a46093;stop-opacity:1;" offset="0.808594"/><stop style="stop-color:#a55f93;stop-opacity:1;" offset="0.8125"/><stop style="stop-color:#a55f93;stop-opacity:1;" offset="0.816406"/><stop style="stop-color:#a65f93;stop-opacity:1;" offset="0.820312"/><stop style="stop-color:#a75f93;stop-opacity:1;" offset="0.824219"/><stop style="stop-color:#a75f94;stop-opacity:1;" offset="0.828125"/><stop style="stop-color:#a85f94;stop-opacity:1;" offset="0.832031"/><stop style="stop-color:#a95f94;stop-opacity:1;" offset="0.835937"/><stop style="stop-color:#a95f94;stop-opacity:1;" offset="0.839844"/><stop style="stop-color:#aa5f94;stop-opacity:1;" offset="0.84375"/><stop style="stop-color:#ab5e94;stop-opacity:1;" offset="0.847656"/><stop style="stop-color:#ac5e94;stop-opacity:1;" offset="0.851562"/><stop style="stop-color:#ac5e94;stop-opacity:1;" offset="0.855469"/><stop style="stop-color:#ad5e94;stop-opacity:1;" offset="0.859375"/><stop style="stop-color:#ae5e95;stop-opacity:1;" offset="0.863281"/><stop style="stop-color:#ae5e95;stop-opacity:1;" offset="0.867187"/><stop style="stop-color:#af5e95;stop-opacity:1;" offset="0.871094"/><stop style="stop-color:#b05e95;stop-opacity:1;" offset="0.875"/><stop style="stop-color:#b05e95;stop-opacity:1;" offset="0.878906"/><stop style="stop-color:#b15d95;stop-opacity:1;" offset="0.882812"/><stop style="stop-color:#b25d95;stop-opacity:1;" offset="0.886719"/><stop style="stop-color:#b35d95;stop-opacity:1;" offset="0.890625"/><stop style="stop-color:#b35d95;stop-opacity:1;" offset="0.894531"/><stop style="stop-color:#b45d95;stop-opacity:1;" offset="0.898437"/><stop style="stop-color:#b55d96;stop-opacity:1;" offset="0.902344"/><stop style="stop-color:#b55d96;stop-opacity:1;" offset="0.90625"/><stop style="stop-color:#b65d96;stop-opacity:1;" offset="0.910156"/><stop style="stop-color:#b75d96;stop-opacity:1;" offset="0.914062"/><stop style="stop-color:#b75c96;stop-opacity:1;" offset="0.917969"/><stop style="stop-color:#b85c96;stop-opacity:1;" offset="0.921875"/><stop style="stop-color:#b95c96;stop-opacity:1;" offset="0.925781"/><stop style="stop-color:#ba5c96;stop-opacity:1;" offset="0.929687"/><stop style="stop-color:#ba5c96;stop-opacity:1;" offset="0.933594"/><stop style="stop-color:#bb5c97;stop-opacity:1;" offset="0.9375"/><stop style="stop-color:#bc5c97;stop-opacity:1;" offset="0.941406"/><stop style="stop-color:#bc5c97;stop-opacity:1;" offset="0.945312"/><stop style="stop-color:#bd5b97;stop-opacity:1;" offset="0.949219"/><stop style="stop-color:#be5b97;stop-opacity:1;" offset="0.953125"/><stop style="stop-color:#be5b97;stop-opacity:1;" offset="0.957031"/><stop style="stop-color:#bf5b97;stop-opacity:1;" offset="0.960937"/><stop style="stop-color:#c05b97;stop-opacity:1;" offset="0.964844"/><stop style="stop-color:#c05b97;stop-opacity:1;" offset="0.96875"/><stop style="stop-color:#c15b98;stop-opacity:1;" offset="0.972656"/><stop style="stop-color:#c25b98;stop-opacity:1;" offset="0.976562"/><stop style="stop-color:#c35b98;stop-opacity:1;" offset="0.980469"/><stop style="stop-color:#c35a98;stop-opacity:1;" offset="0.984375"/><stop style="stop-color:#c45a98;stop-opacity:1;" offset="0.988281"/><stop style="stop-color:#c55a98;stop-opacity:1;" offset="0.992188"/><stop style="stop-color:#c55a98;stop-opacity:1;" offset="0.996094"/><stop style="stop-color:#c65a98;stop-opacity:1;" offset="1"/></linearGradient></defs><g id="c5cd94dc52"><g clip-rule="nonzero" clip-path="url(#8eedd09354)"><path style=" stroke:none;fill-rule:nonzero;fill:url(#07bb579cda);" d="M 2.441406 1.957031 L 2.441406 27.074219 L 27.558594 27.074219 L 27.558594 1.957031 Z M 2.441406 1.957031 "/></g><g style="fill:#ffffff;fill-opacity:1;"><g transform="translate(5.725921, 10.110803)"><path style="stroke:none" d="M 2.453125 0.09375 C 2.140625 0.09375 1.847656 0.0351562 1.578125 -0.078125 C 1.304688 -0.191406 1.070312 -0.347656 0.875 -0.546875 C 0.675781 -0.742188 0.519531 -0.976562 0.40625 -1.25 C 0.300781 -1.519531 0.25 -1.8125 0.25 -2.125 C 0.25 -2.445312 0.300781 -2.742188 0.40625 -3.015625 C 0.519531 -3.285156 0.675781 -3.519531 0.875 -3.71875 C 1.070312 -3.925781 1.304688 -4.085938 1.578125 -4.203125 C 1.847656 -4.316406 2.140625 -4.375 2.453125 -4.375 C 2.796875 -4.375 3.113281 -4.300781 3.40625 -4.15625 C 3.695312 -4.007812 3.9375 -3.804688 4.125 -3.546875 C 4.320312 -3.296875 4.453125 -3 4.515625 -2.65625 L 3.59375 -2.65625 C 3.507812 -2.914062 3.363281 -3.117188 3.15625 -3.265625 C 2.957031 -3.410156 2.722656 -3.484375 2.453125 -3.484375 C 2.210938 -3.484375 1.992188 -3.421875 1.796875 -3.296875 C 1.609375 -3.179688 1.457031 -3.019531 1.34375 -2.8125 C 1.226562 -2.613281 1.171875 -2.382812 1.171875 -2.125 C 1.171875 -1.875 1.226562 -1.644531 1.34375 -1.4375 C 1.457031 -1.238281 1.609375 -1.078125 1.796875 -0.953125 C 1.992188 -0.835938 2.210938 -0.78125 2.453125 -0.78125 C 2.734375 -0.78125 2.972656 -0.859375 3.171875 -1.015625 C 3.378906 -1.179688 3.519531 -1.398438 3.59375 -1.671875 L 4.53125 -1.671875 C 4.46875 -1.316406 4.335938 -1.003906 4.140625 -0.734375 C 3.953125 -0.472656 3.710938 -0.269531 3.421875 -0.125 C 3.128906 0.0195312 2.804688 0.09375 2.453125 0.09375 Z M 2.453125 0.09375 "/></g></g><g style="fill:#ffffff;fill-opacity:1;"><g transform="translate(10.687401, 10.110803)"><path style="stroke:none" d="M 2.515625 0.09375 C 2.191406 0.09375 1.890625 0.0351562 1.609375 -0.078125 C 1.335938 -0.191406 1.097656 -0.347656 0.890625 -0.546875 C 0.679688 -0.742188 0.519531 -0.976562 0.40625 -1.25 C 0.289062 -1.519531 0.234375 -1.816406 0.234375 -2.140625 C 0.234375 -2.453125 0.289062 -2.742188 0.40625 -3.015625 C 0.519531 -3.285156 0.679688 -3.519531 0.890625 -3.71875 C 1.097656 -3.925781 1.335938 -4.085938 1.609375 -4.203125 C 1.890625 -4.316406 2.191406 -4.375 2.515625 -4.375 C 2.835938 -4.375 3.140625 -4.316406 3.421875 -4.203125 C 3.703125 -4.085938 3.941406 -3.925781 4.140625 -3.71875 C 4.347656 -3.519531 4.507812 -3.285156 4.625 -3.015625 C 4.738281 -2.742188 4.796875 -2.453125 4.796875 -2.140625 C 4.796875 -1.816406 4.738281 -1.519531 4.625 -1.25 C 4.507812 -0.976562 4.347656 -0.742188 4.140625 -0.546875 C 3.941406 -0.347656 3.703125 -0.191406 3.421875 -0.078125 C 3.140625 0.0351562 2.835938 0.09375 2.515625 0.09375 Z M 2.515625 -0.78125 C 2.773438 -0.78125 3.003906 -0.835938 3.203125 -0.953125 C 3.398438 -1.078125 3.554688 -1.238281 3.671875 -1.4375 C 3.796875 -1.644531 3.859375 -1.878906 3.859375 -2.140625 C 3.859375 -2.390625 3.796875 -2.617188 3.671875 -2.828125 C 3.554688 -3.035156 3.398438 -3.195312 3.203125 -3.3125 C 3.003906 -3.4375 2.773438 -3.5 2.515625 -3.5 C 2.265625 -3.5 2.035156 -3.4375 1.828125 -3.3125 C 1.628906 -3.195312 1.46875 -3.035156 1.34375 -2.828125 C 1.226562 -2.617188 1.171875 -2.390625 1.171875 -2.140625 C 1.171875 -1.878906 1.226562 -1.644531 1.34375 -1.4375 C 1.46875 -1.238281 1.628906 -1.078125 1.828125 -0.953125 C 2.035156 -0.835938 2.265625 -0.78125 2.515625 -0.78125 Z M 2.515625 -0.78125 "/></g></g><g style="fill:#ffffff;fill-opacity:1;"><g transform="translate(15.966217, 10.110803)"><path style="stroke:none" d="M 2.109375 -4.28125 C 2.421875 -4.28125 2.707031 -4.222656 2.96875 -4.109375 C 3.238281 -4.003906 3.46875 -3.859375 3.65625 -3.671875 C 3.851562 -3.484375 4.003906 -3.257812 4.109375 -3 C 4.222656 -2.738281 4.28125 -2.453125 4.28125 -2.140625 C 4.28125 -1.835938 4.222656 -1.550781 4.109375 -1.28125 C 4.003906 -1.019531 3.851562 -0.789062 3.65625 -0.59375 C 3.46875 -0.40625 3.238281 -0.257812 2.96875 -0.15625 C 2.707031 -0.0507812 2.421875 0 2.109375 0 L 0.484375 0 L 0.484375 -4.28125 Z M 2.078125 -0.859375 C 2.328125 -0.859375 2.546875 -0.910156 2.734375 -1.015625 C 2.921875 -1.128906 3.066406 -1.28125 3.171875 -1.46875 C 3.273438 -1.664062 3.328125 -1.890625 3.328125 -2.140625 C 3.328125 -2.390625 3.273438 -2.609375 3.171875 -2.796875 C 3.066406 -2.992188 2.921875 -3.144531 2.734375 -3.25 C 2.546875 -3.363281 2.328125 -3.421875 2.078125 -3.421875 L 1.421875 -3.421875 L 1.421875 -0.859375 Z M 2.078125 -0.859375 "/></g></g><g style="fill:#ffffff;fill-opacity:1;"><g transform="translate(20.744616, 10.110803)"><path style="stroke:none" d="M 1.421875 -0.859375 L 3.125 -0.859375 L 3.125 0 L 0.484375 0 L 0.484375 -4.28125 L 3.0625 -4.28125 L 3.0625 -3.421875 L 1.421875 -3.421875 L 1.421875 -2.578125 L 2.890625 -2.578125 L 2.890625 -1.734375 L 1.421875 -1.734375 Z M 1.421875 -0.859375 "/></g></g><g style="fill:#ffffff;fill-opacity:1;"><g transform="translate(5.725921, 16.640482)"><path style="stroke:none" d="M 5.296875 -4.28125 L 6.265625 -4.28125 L 4.953125 0 L 4.125 0 L 3.171875 -2.390625 L 2.25 0 L 1.421875 0 L 0.078125 -4.28125 L 1.0625 -4.28125 L 1.890625 -1.4375 L 3.015625 -4.234375 L 3.328125 -4.234375 L 4.484375 -1.4375 Z M 5.296875 -4.28125 "/></g></g><g style="fill:#ffffff;fill-opacity:1;"><g transform="translate(12.335122, 16.640482)"><path style="stroke:none" d="M 0.484375 0 L 0.484375 -4.28125 L 1.421875 -4.28125 L 1.421875 0 Z M 0.484375 0 "/></g></g><g style="fill:#ffffff;fill-opacity:1;"><g transform="translate(14.495474, 16.640482)"><path style="stroke:none" d="M 3.4375 -4.28125 L 3.4375 -3.421875 L 2.25 -3.421875 L 2.25 0 L 1.3125 0 L 1.3125 -3.421875 L 0.140625 -3.421875 L 0.140625 -4.28125 Z M 3.4375 -4.28125 "/></g></g><g style="fill:#ffffff;fill-opacity:1;"><g transform="translate(18.315753, 16.640482)"><path style="stroke:none" d="M 3.03125 -4.28125 L 3.953125 -4.28125 L 3.953125 0 L 3.03125 0 L 3.03125 -1.765625 L 1.421875 -1.765625 L 1.421875 0 L 0.484375 0 L 0.484375 -4.28125 L 1.421875 -4.28125 L 1.421875 -2.625 L 3.03125 -2.625 Z M 3.03125 -4.28125 "/></g></g><g style="fill:#ffffff;fill-opacity:1;"><g transform="translate(5.725921, 23.170161)"><path style="stroke:none" d="M 4.0625 0 L 2.921875 0 L 1.421875 -2.09375 L 1.421875 0 L 0.484375 0 L 0.484375 -4.28125 L 1.421875 -4.28125 L 1.421875 -2.296875 L 2.8125 -4.28125 L 3.890625 -4.28125 L 2.4375 -2.234375 Z M 4.0625 0 "/></g></g><g style="fill:#ffffff;fill-opacity:1;"><g transform="translate(9.985592, 23.170161)"><path style="stroke:none" d="M 3.328125 0 L 3.03125 -0.8125 L 1.328125 -0.8125 L 1.03125 0 L 0.0625 0 L 1.734375 -4.28125 L 2.609375 -4.28125 L 4.328125 0 Z M 2.171875 -3.140625 L 1.625 -1.625 L 2.734375 -1.625 Z M 2.171875 -3.140625 "/></g></g><g style="fill:#ffffff;fill-opacity:1;"><g transform="translate(14.623628, 23.170161)"><path style="stroke:none" d="M 2.125 -4.28125 C 2.414062 -4.28125 2.675781 -4.210938 2.90625 -4.078125 C 3.132812 -3.953125 3.3125 -3.773438 3.4375 -3.546875 C 3.570312 -3.328125 3.640625 -3.078125 3.640625 -2.796875 C 3.640625 -2.515625 3.570312 -2.265625 3.4375 -2.046875 C 3.3125 -1.828125 3.132812 -1.65625 2.90625 -1.53125 C 2.675781 -1.40625 2.414062 -1.34375 2.125 -1.34375 L 1.421875 -1.34375 L 1.421875 0 L 0.484375 0 L 0.484375 -4.28125 Z M 2.09375 -2.1875 C 2.28125 -2.1875 2.425781 -2.242188 2.53125 -2.359375 C 2.644531 -2.484375 2.703125 -2.628906 2.703125 -2.796875 C 2.703125 -2.984375 2.644531 -3.132812 2.53125 -3.25 C 2.425781 -3.363281 2.28125 -3.421875 2.09375 -3.421875 L 1.421875 -3.421875 L 1.421875 -2.1875 Z M 2.09375 -2.1875 "/></g></g><g style="fill:#ffffff;fill-opacity:1;"><g transform="translate(18.675809, 23.170161)"><path style="stroke:none" d="M 1.90625 0.078125 C 1.582031 0.078125 1.296875 0.0195312 1.046875 -0.09375 C 0.796875 -0.207031 0.597656 -0.375 0.453125 -0.59375 C 0.316406 -0.8125 0.25 -1.078125 0.25 -1.390625 L 1.1875 -1.390625 C 1.1875 -1.179688 1.257812 -1.023438 1.40625 -0.921875 C 1.550781 -0.828125 1.71875 -0.78125 1.90625 -0.78125 C 2.019531 -0.78125 2.128906 -0.796875 2.234375 -0.828125 C 2.335938 -0.867188 2.421875 -0.925781 2.484375 -1 C 2.554688 -1.082031 2.59375 -1.175781 2.59375 -1.28125 C 2.59375 -1.382812 2.550781 -1.46875 2.46875 -1.53125 C 2.394531 -1.59375 2.289062 -1.644531 2.15625 -1.6875 C 2.03125 -1.726562 1.890625 -1.769531 1.734375 -1.8125 C 1.578125 -1.84375 1.414062 -1.882812 1.25 -1.9375 C 1.082031 -1.988281 0.925781 -2.054688 0.78125 -2.140625 C 0.632812 -2.234375 0.519531 -2.351562 0.4375 -2.5 C 0.351562 -2.65625 0.3125 -2.847656 0.3125 -3.078125 C 0.3125 -3.484375 0.453125 -3.796875 0.734375 -4.015625 C 1.015625 -4.242188 1.390625 -4.359375 1.859375 -4.359375 C 2.347656 -4.359375 2.726562 -4.234375 3 -3.984375 C 3.269531 -3.734375 3.40625 -3.398438 3.40625 -2.984375 L 2.484375 -2.984375 C 2.484375 -3.160156 2.414062 -3.289062 2.28125 -3.375 C 2.15625 -3.46875 2.007812 -3.515625 1.84375 -3.515625 C 1.6875 -3.515625 1.546875 -3.484375 1.421875 -3.421875 C 1.296875 -3.359375 1.234375 -3.253906 1.234375 -3.109375 C 1.234375 -3.015625 1.269531 -2.9375 1.34375 -2.875 C 1.414062 -2.8125 1.515625 -2.757812 1.640625 -2.71875 C 1.765625 -2.6875 1.90625 -2.648438 2.0625 -2.609375 C 2.21875 -2.566406 2.378906 -2.519531 2.546875 -2.46875 C 2.722656 -2.414062 2.882812 -2.34375 3.03125 -2.25 C 3.175781 -2.15625 3.296875 -2.03125 3.390625 -1.875 C 3.484375 -1.71875 3.53125 -1.523438 3.53125 -1.296875 C 3.53125 -0.984375 3.453125 -0.722656 3.296875 -0.515625 C 3.148438 -0.316406 2.957031 -0.164062 2.71875 -0.0625 C 2.476562 0.03125 2.207031 0.078125 1.90625 0.078125 Z M 1.90625 0.078125 "/></g></g></g></svg>